<svg xmlns="http://www.w3.org/2000/svg" xmlns:xlink="http://www.w3.org/1999/xlink" xmlns:lucid="lucid" width="1421.67" height="1560"><g transform="translate(420.16975308641963 565.3333333333334)" lucid:page-tab-id="0_0"><path d="M-1806.87-1258.83h3677.74v2581.66h-3677.74z" fill="#fff"/><path d="M-400.17-539.33a6 6 0 0 1 6-6h1327a6 6 0 0 1 6 6v1508a6 6 0 0 1-6 6h-1327a6 6 0 0 1-6-6z" stroke="#248814" stroke-width="3" fill="#fff" fill-opacity="0"/><path d="M-400.17-545.33h56v56h-56v-56z" stroke="#fff" stroke-opacity="0" fill="#248814"/><path d="M-368.4-517.03h-1.2v-1.1c-.1-1.73-1.47-3.08-3.2-3.2-1.88-.13-3.53 1.3-3.66 3.2v1.07h-1.18c-.44 0-.8.36-.8.8v6.12c0 .45.36.8.8.8h9.23c.43 0 .8-.35.8-.8v-6.08c0-.45-.37-.8-.8-.8zm-6.4-1.07c.08-1.02.98-1.76 2-1.67.9.1 1.57.77 1.66 1.67v1.07h-3.72zm5.64 7.1h-7.68v-4.43h7.63z" stroke="#fff" stroke-opacity="0" fill="#fff"/><path d="M-357.9-519.6c-.08-2.43-1.58-4.46-3.87-5.3-1.58-.45-3.16-.13-4.4.92-.68-1.46-1.47-2.6-2.6-3.76-3.24-3.35-7.94-4.3-12.18-2.4-4.04 1.9-6.4 5.64-6.54 10.06v.7c-3.4.97-5.65 4.07-5.48 7.64v.64c.38 4.28 3.9 7.52 8.2 7.46h26s7.4-.63 7.4-8.1c.05-3.9-2.65-7.2-6.52-7.85zm-.96 14.4h-25.92c-3.46.05-6.28-2.53-6.58-5.96v-.52c-.16-3.05 1.92-5.7 4.9-6.32.4-.1.64-.46.6-.87-.05-.42-.05-.75 0-1.16.08-3.8 2.12-6.94 5.53-8.6 1.25-.57 2.4-.82 3.83-.84 2.62.08 4.87 1.04 6.7 2.93 1.25 1.3 2.04 2.6 2.62 4.32.04.13.12.27.25.35.37.28.87.2 1.12-.16.82-1.18 2.24-1.68 3.6-1.3 1.8.72 2.88 2.4 2.84 4.32-.08.4.2.8.63.9 3.57.35 6.2 3.54 5.82 7.1-.3 3.13-2.7 5.52-5.83 5.85z" stroke="#fff" stroke-opacity="0" fill="#fff"/><use xlink:href="#a" transform="matrix(1,0,0,1,-329.16975308641963,-525.3333333333334) translate(0 26.844444444444434)"/><use xlink:href="#b" transform="matrix(1,0,0,1,-329.16975308641963,-525.3333333333334) translate(130.30740740740734 26.844444444444434)"/><path d="M-356.17-450.33a6 6 0 0 1 6-6h1223a6 6 0 0 1 6 6v659a6 6 0 0 1-6 6h-1223a6 6 0 0 1-6-6z" fill="#fff" fill-opacity="0"/><path d="M-333.1-456.26h12m12 0h12m12 0h12m12 0h12m12 0h12m11.98 0h12m12 0h12m12 0h12m12 0h12m12 0h12m12 0l12-.02m12 0h12m12 0h12m12 0h12m12 0h12m12 0h12m12 0h12m12 0h12m12 0h12m12 0h12m12 0h12m12 0h11.98m12 0h12m12 0h12m12-.02h12m12 0h12m12 0h12m12 0h12m12 0h12m12 0h12m12 0h12m12 0h12m12 0h12m12 0h12m12 0h12m12 0h12m12 0h12m12 0h12m11.98-.02h12m12 0h12m12 0h12m12 0h12m12 0h12m12 0h12m12 0h12m12 0h12m12 0h12m12 0h12m12 0h12m12 0h12m12 0h6l.93.06.9.22.88.36.8.5.72.6.6.72.5.8.37.87.22.93v6.1m0 12.23v12.22m0 12.22v12.22m0 12.22v12.23m0 12.22v12.2m0 12.23v12.22m0 12.22v12.22m0 12.2l.02 12.23m0 12.22v12.23m0 12.22v12.22m0 12.22v12.22m0 12.22v12.22m0 12.22v12.22m0 12.23v12.22m0 12.2l.02 12.23m0 12.22v12.22m0 12.22v12.2m0 12.23v12.23m0 12.22V-5.2m0 12.22v12.22m0 12.22v12.22m0 12.22v12.22m.02 12.23v12.22m0 12.22V117m0 12.23v12.22m0 12.22v12.22m0 12.2v12.24m0 12.22v6.1l-.06.95-.22.92-.36.87-.5.8-.6.7-.72.62-.8.5-.88.35-.9.22h-6m-12 0h-12m-12 0h-12m-12 0h-12m-12 0h-12m-12 0h-12m-12 0h-12m-12 0h-12m-12 0h-12m-12 0h-12m-12 0h-12m-12 0h-12m-12 0h-12m-12 0h-12m-12 0h-12m-12 0h-12m-12 .02h-12m-12 0h-12m-12 0h-12m-12 0h-12m-12 0h-12m-12 0h-12m-11.98 0h-12m-12 0h-12m-12 0h-12m-12 0h-12m-12 0h-12m-12 0h-12m-12 0h-12m-12 0l-12 .02m-12 0h-12m-12 0h-12m-12 0h-12m-12 0h-12m-12 0h-12m-12 0h-12m-12 0h-12m-12 0h-12m-12 0h-12m-11.98 0h-12m-12 0h-12m-12 0h-12m-12 0h-12m-12 0l-12 .02m-12 0h-12m-12 0h-12m-12 0h-12m-12 0h-12m-12 0h-12m-12 0h-12m-12 0h-12m-12 0h-6l-.93-.07-.92-.23-.87-.36-.8-.48-.7-.6-.62-.73-.5-.8-.36-.88-.22-.9v-6.13m0-12.23v-12.22m0-12.22V154.6m0-12.2v-12.23m0-12.22v-12.22m0-12.23V81.28m0-12.22V56.84m0-12.22l-.02-12.22m0-12.22V7.96m0-12.22v-12.22m0-12.23v-12.23m0-12.22v-12.22m0-12.22v-12.2m0-12.23v-12.22m0-12.22v-12.23m-.02-12.22v-12.22m0-12.22v-12.22m0-12.22v-12.22m0-12.22v-12.22m0-12.23v-12.2m0-12.23v-12.22m0-12.22v-12.22m-.02-12.2v-12.23m0-12.22v-12.23m0-12.22v-12.22m0-12.22v-12.22m0-12.22V-432m0-12.22v-6.1l.06-.95.22-.92.36-.86.5-.8.6-.72.72-.6.8-.5.88-.36.9-.22h6" stroke="#147eba" stroke-width="3" fill="none"/><path d="M-274.78-94.4a6 6 0 0 1 6-6h408a6 6 0 0 1 6 6v268a6 6 0 0 1-6 6h-408a6 6 0 0 1-6-6z" fill="#147eba" fill-opacity=".13"/><path d="M-274.78-100.4h56v56h-56v-56z" stroke="#fff" stroke-opacity="0" fill="#147eba"/><path d="M-231.4-78.23c-.15-.17-.34-.25-.56-.25h-5.15v-5.58c-.04-2.54-.97-4.7-2.85-6.4-1.9-1.84-4.15-2.75-6.77-2.75-2.65 0-4.9.82-6.8 2.6-1.9 1.72-2.87 3.88-2.9 6.42v5.65h-5.15c-.25 0-.44.1-.6.25-.15.17-.2.34-.2.6v25.28c0 .4.33.8.8.8H-232c.48 0 .82-.4.82-.8v-25.3c0-.2-.06-.37-.22-.53zm-23.46-5.9c.03-2.13.8-3.88 2.37-5.3 1.63-1.5 3.54-2.2 5.75-2.2 2.22 0 4.12.75 5.7 2.25 1.54 1.4 2.32 3.2 2.32 5.32v5.58h-16.16zm22.1 30.94h-28.03v-23.7h28.03z" stroke="#fff" stroke-opacity="0" fill="#fff"/><path d="M-247.58-63.1v6.24h1.6v-6.23c2.13-.38 3.62-2.18 3.63-4.34 0-2.43-1.97-4.4-4.4-4.43-2.2-.03-4.06 1.5-4.44 3.68-.4 2.4 1.2 4.7 3.62 5.1zm.82-7.16c.78 0 1.44.27 2 .82.54.56.82 1.22.8 2 .03 1.55-1.2 2.8-2.74 2.82h-.06c-1.56.12-2.92-1.05-3.04-2.6-.1-1.57 1.05-2.94 2.6-3.04.16-.02.3-.02.44 0z" stroke="#fff" stroke-opacity="0" fill="#fff"/><use xlink:href="#c" transform="matrix(1,0,0,1,-203.77954205746096,-80.4107142857143) translate(0 14.4)"/><use xlink:href="#d" transform="matrix(1,0,0,1,-203.77954205746096,-80.4107142857143) translate(68.9 14.4)"/><use xlink:href="#e" transform="matrix(1,0,0,1,-203.77954205746096,-80.4107142857143) translate(79.85000000000001 14.4)"/><path d="M-274.78 309.84a6 6 0 0 1 6-6h408a6 6 0 0 1 6 6v268a6 6 0 0 1-6 6h-408a6 6 0 0 1-6-6z" fill="#147eba" fill-opacity=".13"/><path d="M-274.78 303.84h56v56h-56v-56z" stroke="#fff" stroke-opacity="0" fill="#147eba"/><path d="M-231.4 326.02c-.15-.17-.34-.25-.56-.25h-5.15v-5.58c-.04-2.55-.97-4.7-2.85-6.42-1.9-1.83-4.15-2.74-6.77-2.74-2.65 0-4.9.83-6.8 2.62-1.9 1.7-2.87 3.87-2.9 6.4v5.66h-5.15c-.25 0-.44.1-.6.25-.15.17-.2.34-.2.6v25.28c0 .4.33.8.8.8H-232c.48 0 .82-.4.82-.8v-25.3c0-.2-.06-.37-.22-.53zm-23.46-5.9c.03-2.13.8-3.88 2.37-5.3 1.63-1.5 3.54-2.2 5.75-2.2 2.22 0 4.12.75 5.7 2.25 1.54 1.4 2.32 3.2 2.32 5.32v5.57h-16.16zm22.1 30.94h-28.03v-23.7h28.03z" stroke="#fff" stroke-opacity="0" fill="#fff"/><path d="M-247.58 341.15v6.24h1.6v-6.24c2.13-.4 3.62-2.2 3.63-4.35 0-2.42-1.97-4.4-4.4-4.42-2.2-.03-4.06 1.5-4.44 3.68-.4 2.4 1.2 4.68 3.62 5.1zm.82-7.16c.78 0 1.44.26 2 .8.54.57.82 1.23.8 2 .03 1.56-1.2 2.82-2.74 2.83h-.06c-1.56.12-2.92-1.05-3.04-2.6-.1-1.57 1.05-2.94 2.6-3.04.16-.03.3-.03.44 0z" stroke="#fff" stroke-opacity="0" fill="#fff"/><use xlink:href="#f" transform="matrix(1,0,0,1,-203.77954205746096,323.83928571428567) translate(0 14.4)"/><use xlink:href="#d" transform="matrix(1,0,0,1,-203.77954205746096,323.83928571428567) translate(68.9 14.4)"/><use xlink:href="#g" transform="matrix(1,0,0,1,-203.77954205746096,323.83928571428567) translate(79.85000000000001 14.4)"/><path d="M239.13 12.92l-15.6 37.95h-5.55l-15.3-37.95h4.8c.6 0 1.05.15 1.35.3.45.3.6.75.9 1.2l9.75 24.75c.45 1.35 1.05 3 1.35 4.8.15-.9.45-1.65.75-2.55.3-.75.45-1.5.6-2.25l9.75-24.75c.15-.45.45-.75.9-1.05.3-.15.75-.3 1.35-.3h4.95zM283.83 12.92v37.95h-5.55v-26.1-1.35c0-.45.15-1.05.15-1.5l-12.15 22.65c-.45.9-1.2 1.35-2.1 1.35h-.9c-1.05 0-1.8-.45-2.1-1.35l-12.45-22.8c0 .6.15 1.2.15 1.5v27.6h-5.55V12.92h4.65c.6 0 .9 0 1.2.15.3.15.6.3.9.9l12.15 22.05c.15.45.45 1.05.75 1.65.3.45.45 1.05.6 1.5.3-.45.45-1.05.75-1.65.3-.6.45-1.05.75-1.65l12-22.05c.3-.6.6-.75.9-.9.3-.15.6-.15 1.2-.15h4.65zM291.63 32.57h13.35v4.8h-13.35v-4.8z" stroke="#000" stroke-opacity="0" stroke-width="1.34" fill="#010101"/><path d="M312.63 122.42h-117.6c-9 0-16.2-7.2-16.2-16.2v-117.6c0-9 7.2-16.2 16.2-16.2h117.6c9 0 16.2 7.2 16.2 16.2v117.6c0 9-7.2 16.2-16.2 16.2zm-117.6-144.6c-6 0-10.8 4.8-10.8 10.8v117.6c0 6 4.8 10.8 10.8 10.8h117.6c6 0 10.8-4.8 10.8-10.8v-117.6c0-6-4.8-10.8-10.8-10.8h-117.6z" stroke="#000" stroke-opacity="0" stroke-width="1.34" fill="#010101"/><path d="M299.43 106.67c-.75 0-1.35-.6-1.35-1.35 0-.75.6-1.35 1.35-1.35h2.7c.75 0 1.35.6 1.35 1.35 0 .75-.6 1.35-1.35 1.35v-1.35 1.35h-2.7zm-7.95 0h-2.7c-.75 0-1.35-.6-1.35-1.35 0-.75.6-1.35 1.35-1.35h2.7c.75 0 1.35.6 1.35 1.35 0 .75-.6 1.35-1.35 1.35zm-10.65 0h-2.55c-.9 0-1.35-.6-1.35-1.35 0-.75.45-1.35 1.35-1.35h2.55c.9 0 1.35.6 1.35 1.35 0 .75-.6 1.35-1.35 1.35zm-10.65 0h-2.7c-.75 0-1.35-.6-1.35-1.35 0-.75.6-1.35 1.35-1.35h2.7c.75 0 1.35.6 1.35 1.35 0 .75-.6 1.35-1.35 1.35zm-10.65 0h-2.7c-.75 0-1.35-.6-1.35-1.35 0-.75.6-1.35 1.35-1.35h2.7c.75 0 1.35.6 1.35 1.35 0 .75-.6 1.35-1.35 1.35zm-10.65 0h-2.55c-.9 0-1.35-.6-1.35-1.35 0-.75.45-1.35 1.35-1.35h2.55c.9 0 1.35.6 1.35 1.35 0 .75-.6 1.35-1.35 1.35zm-10.65 0h-2.7c-.75 0-1.2-.6-1.2-1.35 0-.75.45-1.35 1.2-1.35h2.7c.9 0 1.35.6 1.35 1.35 0 .75-.45 1.35-1.35 1.35zm-10.5 0h-2.7c-.75 0-1.35-.6-1.35-1.35 0-.75.6-1.35 1.35-1.35h2.7c.75 0 1.35.6 1.35 1.35 0 .75-.75 1.35-1.35 1.35zm-10.65 0h-2.7c-.75 0-1.35-.6-1.35-1.35 0-.75.6-1.35 1.35-1.35h2.7c.75 0 1.35.6 1.35 1.35 0 .75-.6 1.35-1.35 1.35zm-10.65 0h-.9c-.6 0-1.35 0-1.95-.15-.75-.15-1.2-.75-1.05-1.65.15-.75.75-1.2 1.5-1.05.6.15 1.05.15 1.65.15h.75c.9 0 1.35.6 1.35 1.35 0 .75-.6 1.35-1.35 1.35zm102.75-3.15c-.3 0-.6-.15-.9-.45-.6-.6-.6-1.35-.15-1.95.6-.45.9-1.2 1.35-1.8.3-.75 1.05-.9 1.65-.75.75.3 1.05 1.2.75 1.8-.45.9-1.05 1.8-1.8 2.55-.15.45-.45.6-.9.6zm-111.75-1.35c-.45 0-.9-.3-1.2-.75-.6-.75-.9-1.65-1.2-2.85-.3-.6.3-1.35.9-1.5.6-.3 1.5.3 1.65.9.15.6.45 1.5.9 2.1.45.75.15 1.5-.45 1.95-.15 0-.3.15-.6.15zm114.3-8.7c-.75 0-1.35-.6-1.35-1.35v-2.7c0-.75.6-1.35 1.35-1.35.75 0 1.35.6 1.35 1.35v2.7c0 .6-.75 1.35-1.35 1.35zm-115.8-1.8c-.75 0-1.35-.45-1.35-1.35v-2.7c0-.75.6-1.2 1.35-1.2.75 0 1.35.45 1.35 1.2v2.7c0 .9-.6 1.35-1.35 1.35zm115.8-8.85c-.75 0-1.35-.6-1.35-1.35v-2.7c0-.9.6-1.35 1.35-1.35.75 0 1.35.45 1.35 1.35v2.7c0 .75-.75 1.35-1.35 1.35zm-115.8-1.65c-.75 0-1.35-.6-1.35-1.35v-2.7c0-.75.6-1.35 1.35-1.35.75 0 1.35.6 1.35 1.35v2.7c0 .6-.6 1.35-1.35 1.35zm115.8-9c-.75 0-1.35-.45-1.35-1.35v-2.7c0-.75.6-1.2 1.35-1.2.75 0 1.35.45 1.35 1.2v2.7c0 .75-.75 1.35-1.35 1.35zm-115.8-1.65c-.75 0-1.35-.6-1.35-1.35v-2.7c0-.75.6-1.35 1.35-1.35.75 0 1.35.6 1.35 1.35v2.7c0 .75-.6 1.35-1.35 1.35zm115.8-9c-.75 0-1.35-.6-1.35-1.35v-2.7c0-.75.6-1.35 1.35-1.35.75 0 1.35.6 1.35 1.35v2.7c0 .75-.75 1.35-1.35 1.35zm-115.8-1.8c-.75 0-1.35-.45-1.35-1.35v-2.55c0-.9.6-1.35 1.35-1.35.75 0 1.35.45 1.35 1.35v2.55c0 .9-.6 1.35-1.35 1.35zm115.8-8.7c-.75 0-1.35-.6-1.35-1.35v-2.7c0-.75.6-1.35 1.35-1.35.75 0 1.35.6 1.35 1.35v2.7c0 .6-.75 1.35-1.35 1.35zm-115.8-1.8c-.75 0-1.35-.6-1.35-1.35v-2.7c0-.75.6-1.35 1.35-1.35.75 0 1.35.6 1.35 1.35v2.7c0 .75-.6 1.35-1.35 1.35zm115.8-9c-.75 0-1.35-.45-1.35-1.35v-2.55c0-.9.6-1.35 1.35-1.35.75 0 1.35.45 1.35 1.35v2.55c0 .9-.75 1.35-1.35 1.35zm-115.8-1.65c-.75 0-1.35-.6-1.35-1.35v-2.7c0-.75.6-1.35 1.35-1.35.75 0 1.35.6 1.35 1.35v2.7c0 .75-.6 1.35-1.35 1.35zm115.8-9c-.75 0-1.35-.45-1.35-1.35v-2.7c0-.75.6-1.2 1.35-1.2.75 0 1.35.45 1.35 1.2v2.7c0 .9-.75 1.35-1.35 1.35zm-115.8-1.65c-.75 0-1.35-.45-1.35-1.2v-2.7c0-.9.6-1.35 1.35-1.35.75 0 1.35.45 1.35 1.35v2.7c0 .6-.6 1.2-1.35 1.2zm115.8-8.85c-.75 0-1.35-.6-1.35-1.35v-2.7c0-.75.6-1.35 1.35-1.35.75 0 1.35.6 1.35 1.35v2.7c0 .6-.75 1.35-1.35 1.35zm-115.8-1.8c-.75 0-1.35-.45-1.35-1.35v-2.7c0-.75.6-1.2 1.35-1.2.75 0 1.35.45 1.35 1.2v2.7c0 .9-.6 1.35-1.35 1.35zm115.8-8.85c-.75 0-1.35-.6-1.35-1.35v-2.7c0-.9.6-1.35 1.35-1.35.75 0 1.35.45 1.35 1.35v2.7c0 .75-.75 1.35-1.35 1.35zm-115.8-1.65c-.75 0-1.35-.6-1.35-1.35v-2.7c0-.75.6-1.35 1.35-1.35.75 0 1.35.6 1.35 1.35v2.7c0 .6-.6 1.35-1.35 1.35zm115.35-9c-.45 0-1.05-.3-1.35-.9-.15-.75-.45-1.5-.9-2.1-.3-.75-.3-1.5.45-1.95.6-.3 1.5-.3 1.8.45.6.75 1.05 1.65 1.2 2.85.3.6-.15 1.35-.9 1.5 0 .15-.15.15-.3.15zm-114.3-1.5c-.15 0-.45 0-.45-.15-.75-.3-1.05-1.2-.75-1.8.45-.9 1.05-1.8 1.8-2.55.45-.45 1.35-.45 1.8-.15.6.6.6 1.35.15 1.95-.6.45-.9 1.2-1.35 1.8-.3.6-.75.9-1.2.9zm106.8-5.25h-.15c-.6-.15-1.05-.15-1.5-.15h-.9c-.9 0-1.35-.6-1.35-1.35 0-.75.45-1.35 1.35-1.35h.9c.6 0 1.35 0 1.95.15.75.15 1.2.75 1.05 1.65-.15.6-.75 1.05-1.35 1.05zm-10.65-.15h-2.7c-.75 0-1.2-.6-1.2-1.35 0-.75.45-1.35 1.2-1.35h2.7c.9 0 1.35.6 1.35 1.35 0 .75-.45 1.35-1.35 1.35zm-10.5 0h-2.7c-.75 0-1.35-.6-1.35-1.35 0-.75.6-1.35 1.35-1.35h2.7c.75 0 1.35.6 1.35 1.35 0 .75-.75 1.35-1.35 1.35zm-10.65 0h-2.7c-.75 0-1.35-.6-1.35-1.35 0-.75.6-1.35 1.35-1.35h2.7c.75 0 1.35.6 1.35 1.35 0 .75-.6 1.35-1.35 1.35zm-10.65 0h-2.55c-.9 0-1.35-.6-1.35-1.35 0-.75.45-1.35 1.35-1.35h2.55c.9 0 1.35.6 1.35 1.35 0 .75-.6 1.35-1.35 1.35zm-10.65 0h-2.7c-.75 0-1.35-.6-1.35-1.35 0-.75.6-1.35 1.35-1.35h2.7c.75 0 1.35.6 1.35 1.35 0 .75-.6 1.35-1.35 1.35zm-10.65 0h-2.7c-.75 0-1.35-.6-1.35-1.35 0-.75.6-1.35 1.35-1.35h2.7c.75 0 1.35.6 1.35 1.35 0 .75-.6 1.35-1.35 1.35zm-10.65 0h-2.55c-.9 0-1.35-.6-1.35-1.35 0-.75.45-1.35 1.35-1.35h2.55c.9 0 1.35.6 1.35 1.35 0 .75-.6 1.35-1.35 1.35zm-10.65 0h-2.7c-.75 0-1.2-.6-1.2-1.35 0-.75.45-1.35 1.2-1.35h2.7c.9 0 1.35.6 1.35 1.35 0 .75-.45 1.35-1.35 1.35zm-10.5 0h-2.7c-.75 0-1.35-.6-1.35-1.35 0-.75.6-1.35 1.35-1.35h2.7c.75 0 1.35.6 1.35 1.35 0 .75-.75 1.35-1.35 1.35zM227.13 62.42c-.15.15-.15.45-.3.45-.15.15-.3.15-.6.15s-.45-.15-.6-.3c-.3-.15-.6-.45-1.05-.6-.3-.15-.75-.3-1.2-.45-.6-.15-1.2-.3-1.95-.3-.6 0-1.2.15-1.8.3-.45.15-.9.45-1.2.6-.3.3-.45.75-.75 1.05-.3.45-.3.9-.3 1.35 0 .6.15 1.05.6 1.5.3.45.6.75 1.2 1.05.45.45 1.05.6 1.65.9.75.15 1.35.3 2.1.6.6.3 1.35.6 1.95.75.75.3 1.2.75 1.8 1.2.45.45.9 1.2 1.2 1.8.3.6.45 1.5.45 2.4 0 1.05-.15 1.95-.45 3-.45.9-.9 1.65-1.65 2.4-.6.6-1.5 1.2-2.55 1.5-.9.45-2.1.6-3.3.6-.75 0-1.5-.15-2.1-.3-.75-.15-1.35-.45-2.1-.6-.6-.3-1.2-.6-1.8-1.05-.6-.3-1.05-.75-1.5-1.2l1.05-1.8.45-.45c.15-.15.3-.15.45-.15.3 0 .6.15.9.45.3.3.6.6 1.05.75.45.3.9.6 1.65.9.6.15 1.2.3 2.1.3 1.35 0 2.4-.15 3.15-1.05.9-.6 1.05-1.5 1.05-2.7 0-.75-.15-1.2-.45-1.65-.3-.45-.75-.75-1.2-1.05-.6-.3-1.05-.6-1.8-.75-.6-.15-1.35-.3-1.95-.6-.75-.3-1.35-.6-2.1-.9-.6-.15-1.2-.6-1.65-1.2-.6-.45-.9-1.05-1.2-1.65-.3-.75-.6-1.65-.6-2.7 0-.75.15-1.65.6-2.4.3-.75.75-1.5 1.5-2.1.6-.75 1.35-1.05 2.4-1.5.9-.45 1.95-.6 3.15-.6 1.35 0 2.55.3 3.75.75 1.05.45 2.1 1.05 3 1.65l-1.05 1.65zM234.48 73.82c0 .9.15 1.65.45 2.4.3.6.6 1.2.9 1.65.45.45.9.9 1.5 1.2.6.15 1.2.15 1.95.15s1.35-.15 1.8-.15c.6-.15.9-.3 1.35-.6.45-.15.6-.45.9-.6.3 0 .6-.15.75-.15.15 0 .45.15.6.15l.9 1.35c-.3.6-.9 1.05-1.35 1.2-.45.3-1.05.75-1.5.9-.6.3-1.2.3-1.8.3-.45 0-1.2.15-1.8.15-1.2 0-2.25-.15-3.15-.45-.9-.45-1.8-.9-2.55-1.8-.6-.75-1.35-1.65-1.65-2.85-.45-1.05-.75-2.4-.75-3.6 0-1.2.15-2.4.6-3.3.3-.9.9-1.8 1.5-2.55.75-.6 1.5-1.35 2.4-1.65 1.05-.45 2.1-.75 3.45-.75 1.05 0 1.95.15 2.7.6.9.3 1.65.75 2.4 1.5.6.6 1.05 1.35 1.35 2.4.45.9.6 1.95.6 3.15 0 .6 0 .9-.15 1.05-.15.15-.45.3-.6.3h-10.8zm8.4-2.1c0-.6-.15-1.2-.3-1.65-.15-.6-.45-.9-.9-1.35-.15-.45-.6-.6-1.2-.9-.45-.3-1.05-.3-1.5-.3-1.2 0-2.25.45-3 1.05-.6.75-1.2 1.8-1.35 3.15h8.25zM252.48 68.27c.45-1.05 1.2-1.8 1.8-2.4.75-.45 1.65-.9 2.7-.9.45 0 .6 0 1.05.15.3.15.6.3.75.45l-.15 2.55c0 .15-.15.3-.3.45-.15.15-.15 0-.3 0s-.45 0-.6-.15c-.3 0-.75-.15-1.05-.15-.45 0-.9.15-1.35.3-.3.15-.6.45-1.05.75-.15.15-.45.45-.75.9-.3.3-.45.75-.6 1.35v10.2h-3.6v-16.5h2.1c.3 0 .6.15.75.3.15.15.3.3.3.6l.3 2.1zM265.38 60.32c0 .3 0 .6-.15.9l-.45.9c-.3.15-.45.3-.9.45-.3.15-.45.15-.9.15-.3 0-.6 0-.9-.15-.3-.15-.6-.3-.75-.45-.15-.3-.3-.45-.45-.9-.15-.3-.15-.45-.15-.9 0-.3 0-.75.15-.9l.45-.9c.3-.15.45-.3.75-.45.3-.15.45-.15.9-.15.3 0 .6 0 .9.15l.9.45c.15.3.3.45.45.9 0 .15.15.45.15.9zm-.6 4.95v16.5h-3.45v-16.5h3.45zM271.68 73.82c0 .9.15 1.65.45 2.4.15.6.45 1.2.9 1.65.3.45.9.9 1.5 1.2.45.15 1.2.15 1.8.15.6 0 1.35-.15 1.8-.15.3-.15.9-.3 1.35-.6.3-.15.6-.45.9-.6.3 0 .45-.15.6-.15.3 0 .6.15.75.15l.9 1.35c-.45.6-.9 1.05-1.35 1.2-.6.3-1.05.75-1.65.9-.45.15-1.2.3-1.65.3-.6 0-1.2.15-1.8.15-1.2 0-2.25-.15-3.15-.45-.9-.45-1.95-.9-2.55-1.8-.75-.75-1.35-1.65-1.8-2.85-.3-1.05-.6-2.4-.6-3.6 0-1.2.15-2.4.45-3.3.45-.9 1.05-1.8 1.65-2.55.75-.6 1.5-1.35 2.4-1.65.9-.45 1.95-.75 3.3-.75 1.05 0 2.1.15 2.85.6.75.3 1.65.75 2.25 1.5.75.6 1.05 1.35 1.5 2.4.45.9.6 1.95.6 3.15 0 .6 0 .9-.15 1.05-.15.15-.3.3-.75.3h-10.5zm8.4-2.1c0-.6-.15-1.2-.3-1.65-.15-.6-.3-.9-.75-1.35-.3-.45-.75-.6-1.2-.9-.6-.3-1.05-.3-1.65-.3-1.2 0-2.25.45-2.85 1.05-.75.75-1.2 1.8-1.35 3.15h8.1zM296.28 68.27c-.15.15-.15.3-.3.3s-.3.15-.45.15c-.15 0-.3 0-.45-.15l-.9-.45c-.15 0-.6-.15-1.05-.3-.3-.15-.75-.15-1.35-.15-.3 0-.75 0-1.2.15-.3.15-.6.3-.9.3-.3.15-.45.45-.45.75-.15.3-.15.45-.15.75 0 .45.15.75.3.9.3.3.6.6 1.05.75.3.15.75.45 1.2.6.6 0 1.2.15 1.5.45.45.3 1.05.45 1.5.6.6.15.9.45 1.35.75.45.3.6.6.9 1.2.3.6.45 1.05.45 1.8s-.15 1.35-.45 2.1c-.3.6-.6 1.2-1.2 1.65-.45.6-1.2.9-1.95 1.2-.9.15-1.8.3-2.85.3-.45 0-1.05 0-1.65-.15-.45-.15-1.05-.15-1.35-.3-.6-.15-1.05-.45-1.35-.75-.45-.3-.9-.45-1.05-.75l.75-1.35.45-.45c.15-.15.15-.15.45-.15.3 0 .45.15.75.3.15.15.45.3.75.6.3.15.6.15 1.05.45.45.15.9.3 1.65.3.45 0 .9 0 1.35-.15l.9-.45c.3-.3.45-.45.45-.9.15-.3.15-.45.15-.9s-.15-.75-.3-1.05c-.3-.3-.6-.6-1.05-.75-.3 0-.75-.3-1.2-.45-.6-.15-1.2-.3-1.5-.6-.6-.15-1.05-.3-1.5-.45-.6-.3-.9-.6-1.35-.9-.45-.15-.6-.75-.9-1.2-.6-.6-.75-1.2-.75-1.95 0-.6.15-1.35.45-1.8.3-.6.75-1.2 1.2-1.65.6-.45 1.2-.75 1.95-1.05.75-.3 1.5-.45 2.4-.45 1.2 0 2.25.15 3.15.6.9.3 1.65.75 2.25 1.35l-.75 1.35z" stroke="#000" stroke-opacity="0" stroke-width="1.34" fill="#010101"/><path d="M428.83-99.33a6 6 0 0 1 6-6h408a6 6 0 0 1 6 6v268a6 6 0 0 1-6 6h-408a6 6 0 0 1-6-6z" fill="#248814" fill-opacity=".13"/><path d="M428.83-105.33h56v56h-56v-56z" stroke="#fff" stroke-opacity="0" fill="#248814"/><path d="M472.2-83.16c-.14-.16-.33-.25-.55-.25h-5.15V-89c-.03-2.54-.96-4.7-2.84-6.4-1.9-1.84-4.15-2.75-6.77-2.75-2.66 0-4.9.83-6.8 2.62-1.9 1.7-2.88 3.86-2.9 6.4v5.65h-5.16c-.25 0-.44.08-.6.25-.15.17-.2.33-.2.58v25.3c0 .4.33.8.8.8h29.58c.47 0 .8-.4.8-.8v-25.3c0-.2-.05-.37-.2-.54zm-23.45-5.9c.03-2.13.8-3.87 2.37-5.3 1.62-1.5 3.53-2.2 5.74-2.2 2.22 0 4.12.76 5.7 2.25 1.54 1.4 2.32 3.2 2.32 5.32v5.57h-16.16zm22.1 30.95H442.8v-23.73h28.02z" stroke="#fff" stroke-opacity="0" fill="#fff"/><path d="M456.03-68.02v6.24h1.6V-68c2.13-.4 3.62-2.2 3.63-4.36 0-2.43-1.97-4.4-4.4-4.43-2.2-.02-4.06 1.5-4.44 3.7-.4 2.4 1.2 4.67 3.6 5.08zm.82-7.16c.78 0 1.44.27 2 .82.54.56.82 1.22.8 2 .03 1.54-1.2 2.8-2.74 2.82h-.05c-1.56.12-2.92-1.05-3.04-2.6-.1-1.57 1.06-2.94 2.62-3.04.15-.02.28-.02.43 0z" stroke="#fff" stroke-opacity="0" fill="#fff"/><use xlink:href="#h" transform="matrix(1,0,0,1,499.83024691358037,-85.33333333333334) translate(0 14.4)"/><use xlink:href="#i" transform="matrix(1,0,0,1,499.83024691358037,-85.33333333333334) translate(59.900000000000006 14.4)"/><use xlink:href="#j" transform="matrix(1,0,0,1,499.83024691358037,-85.33333333333334) translate(70.85000000000001 14.4)"/><path d="M452.18 49.92H331.33v-5h120.85zm59.56 0h-23.12v-5h23.12z" stroke="#5e5e5e" stroke-width=".05" fill="#5e5e5e"/><path d="M514.24 49.92h-2.57v-5h2.57z" stroke="#5e5e5e" stroke-width=".05" fill="#5e5e5e"/><path d="M331.4 49.92h-2.57v-5h2.56z" fill="#5e5e5e"/><path d="M331.42 49.94h-2.6V44.9h2.6zm-2.56-5v4.95h2.5v-4.96z" stroke="#5e5e5e" stroke-width=".05" fill="#5e5e5e"/><use xlink:href="#k" transform="matrix(1,0,0,1,452.17936990701764,36.749999999999986) translate(0 14.222222222222223)"/><path d="M70.7 49.92H55.8v-5h14.9zm105.63 0h-69.2v-5h69.2z" stroke="#5e5e5e" stroke-width=".05" fill="#5e5e5e"/><path d="M178.83 49.92h-2.56v-5h2.56z" fill="#5e5e5e"/><path d="M178.86 49.94h-2.62V44.9h2.62zm-2.57-5v4.95h2.5v-4.96zM55.85 49.92H53.3v-5h2.55z" stroke="#5e5e5e" stroke-width=".05" fill="#5e5e5e"/><use xlink:href="#l" transform="matrix(1,0,0,1,70.69160215439129,36.749999999999986) translate(0 14.222222222222223)"/><path d="M498.83 78.67h295v73.04h-295z" fill="#fff"/><path d="M498.83 78.67h295v36h-295z" fill="#ccc"/><path d="M498.83 150.67h295v1.04h-295z" fill="#f0f0f0"/><path d="M658 78.67v73.04M498.83 78.67h295v73.04h-295z" stroke="#000" stroke-width="2" fill="none"/><use xlink:href="#m" transform="matrix(1,0,0,1,504.83024691358037,78.66666666666677) translate(29.074999999999996 21.6)"/><use xlink:href="#n" transform="matrix(1,0,0,1,664.013028370534,78.66666666666677) translate(24.549999999999997 21.6)"/><use xlink:href="#o" transform="matrix(1,0,0,1,664.013028370534,78.66666666666677) translate(66.5 21.6)"/><use xlink:href="#p" transform="matrix(1,0,0,1,504.83024691358037,114.66666666666677) translate(39 21.6)"/><use xlink:href="#q" transform="matrix(1,0,0,1,664.013028370534,114.66666666666677) translate(44.025 21.6)"/><path d="M938.83 281.7c-22.08 0-40-17.9-40-40 0-22.07 17.92-40 40-40s40 17.93 40 40c0 22.1-17.92 40-40 40zm0-76.55c-20.24 0-36.56 16.32-36.56 36.56 0 20.25 16.32 36.57 36.56 36.57 20.24 0 36.56-16.32 36.56-36.56 0-20.23-16.33-36.55-36.57-36.55z" stroke="#fff" stroke-opacity="0" fill="#693cc5"/><path d="M957.97 265.75h-6.38c-.97 0-1.72-.76-1.72-1.7v-33c-3.46-1.8-6.75-2.6-10.63-2.7-4.26.1-7.8 1.03-11.55 3.06v32.65c0 .94-.75 1.7-1.67 1.7h-6.34c-.97 0-1.72-.76-1.72-1.7v-37.12c0-.52.2-.95.58-1.28 6.1-5 12.85-7.32 20.7-7.13 7.4-.14 13.8 1.94 19.75 6.33.47.33.68.8.68 1.32v37.88c0 .94-.75 1.7-1.7 1.7zm-4.67-3.4h2.96v-35.33c-5.2-3.6-10.67-5.2-17-5.1-6.73-.2-12.52 1.7-17.86 5.76v34.67h2.92v-32.02c0-.66.33-1.23.92-1.5 4.5-2.56 8.84-3.8 14-3.9 4.72.15 8.72 1.2 12.9 3.4h.16c.63.3 1 .86 1 1.57z" stroke="#fff" stroke-opacity="0" fill="#693cc5"/><use xlink:href="#r" transform="matrix(1,0,0,1,868.8302469135804,290.71428571428567) translate(32.376543209876544 17.77777777777778)"/><use xlink:href="#s" transform="matrix(1,0,0,1,868.8302469135804,290.71428571428567) translate(28.672839506172842 44.44444444444444)"/><path d="M428.83-419.33a6 6 0 0 1 6-6h408a6 6 0 0 1 6 6v268a6 6 0 0 1-6 6h-408a6 6 0 0 1-6-6z" fill="#248814" fill-opacity=".13"/><path d="M428.83-425.33h56v56h-56v-56z" stroke="#fff" stroke-opacity="0" fill="#248814"/><path d="M472.2-403.16c-.14-.16-.33-.25-.55-.25h-5.15V-409c-.03-2.54-.96-4.7-2.84-6.4-1.9-1.84-4.15-2.75-6.77-2.75-2.66 0-4.9.83-6.8 2.62-1.9 1.7-2.88 3.86-2.9 6.4v5.65h-5.16c-.25 0-.44.08-.6.25-.15.17-.2.33-.2.58v25.3c0 .4.33.8.8.8h29.58c.47 0 .8-.4.8-.8v-25.3c0-.2-.05-.37-.2-.54zm-23.45-5.9c.03-2.13.8-3.87 2.37-5.3 1.62-1.5 3.53-2.2 5.74-2.2 2.22 0 4.12.76 5.7 2.25 1.54 1.4 2.32 3.2 2.32 5.32v5.57h-16.16zm22.1 30.95H442.8v-23.73h28.02z" stroke="#fff" stroke-opacity="0" fill="#fff"/><path d="M456.03-388.02v6.24h1.6V-388c2.13-.4 3.62-2.2 3.63-4.36 0-2.43-1.97-4.4-4.4-4.43-2.2-.02-4.06 1.5-4.44 3.7-.4 2.4 1.2 4.67 3.6 5.08zm.82-7.16c.78 0 1.44.27 2 .82.54.56.82 1.22.8 2 .03 1.54-1.2 2.8-2.74 2.82h-.05c-1.56.12-2.92-1.05-3.04-2.6-.1-1.57 1.06-2.94 2.62-3.04.15-.02.28-.02.43 0z" stroke="#fff" stroke-opacity="0" fill="#fff"/><use xlink:href="#t" transform="matrix(1,0,0,1,499.83024691358037,-405.33333333333337) translate(0 14.4)"/><use xlink:href="#i" transform="matrix(1,0,0,1,499.83024691358037,-405.33333333333337) translate(61.900000000000006 14.4)"/><use xlink:href="#u" transform="matrix(1,0,0,1,499.83024691358037,-405.33333333333337) translate(72.85000000000001 14.4)"/><path d="M498.83-280.33h295v75h-295z" fill="#fff"/><path d="M498.83-280.33h295v36h-295z" fill="#ccc"/><path d="M498.83-208.33h295v3h-295z" fill="#f0f0f0"/><path d="M658-280.33v75M498.83-280.33h295v75h-295z" stroke="#000" stroke-width="2" fill="none"/><use xlink:href="#m" transform="matrix(1,0,0,1,504.83024691358037,-280.33333333333337) translate(29.074999999999996 21.6)"/><use xlink:href="#n" transform="matrix(1,0,0,1,664.013028370534,-280.33333333333337) translate(24.549999999999997 21.6)"/><use xlink:href="#o" transform="matrix(1,0,0,1,664.013028370534,-280.33333333333337) translate(66.5 21.6)"/><use xlink:href="#p" transform="matrix(1,0,0,1,504.83024691358037,-244.33333333333337) translate(39 21.6)"/><use xlink:href="#q" transform="matrix(1,0,0,1,664.013028370534,-244.33333333333337) translate(44.025 21.6)"/><path d="M-313.84-435.13h117.13v39.6h-117.14z" fill="#fff" fill-opacity="0"/><use xlink:href="#v" transform="matrix(1,0,0,1,-308.836393365077,-430.1333333333333) translate(0 19.73333333333333)"/><path d="M-356.17 277.92a6 6 0 0 1 6-6h1223a6 6 0 0 1 6 6v659a6 6 0 0 1-6 6h-1223a6 6 0 0 1-6-6z" fill="#fff" fill-opacity="0"/><path d="M-333.1 272h12m12 0h12m12 0h12m12 0l12-.02m12 0h12m11.98 0h12m12 0h12m12 0h12m12 0h12m12 0h12m12 0h12m12 0h12m12 0h12m12 0h12m12 0h12m12 0h12m12 0h12m12-.02h12m12 0h12m12 0h12m12 0h12m12 0h11.98m12 0h12m12 0h12m12 0h12m12 0h12m12 0h12m12 0h12m12 0h12m12 0h12m12 0h12m12-.02h12m12 0h12m12 0h12m12 0h12m12 0h12m12 0h12m12 0h12m11.98 0h12m12 0h12m12 0h12m12 0h12m12 0h12m12 0h12m12 0h12m12-.02h12m12 0h12m12 0h12m12 0h12m12 0h12m12 0h6l.93.07.9.2.88.37.8.5.72.6.6.72.5.8.37.86.22.92v6.1m0 12.23v12.23m0 12.22v12.22m0 12.22v12.22m0 12.22v12.22m0 12.22v12.22m0 12.22v12.22m0 12.22l.02 12.22m0 12.22v12.23m0 12.22v12.22m0 12.22v12.2m0 12.23v12.22m0 12.22v12.22m0 12.22v12.22m0 12.22l.02 12.22m0 12.22v12.22m0 12.22v12.22m0 12.22v12.23m0 12.23v12.22m0 12.22v12.22m0 12.2v12.23m0 12.22v12.22m.02 12.23v12.22m0 12.22v12.22m0 12.22v12.22m0 12.22v12.22m0 12.22v12.23m0 12.2v6.12l-.06.94-.22.9-.36.88-.5.8-.6.72-.72.6-.8.5-.88.36-.9.22h-6m-12 0h-12m-12 0h-12m-12 0h-12m-12 0h-12m-12 0h-12m-12 0h-12m-12 0h-12m-12 0h-12m-12 .02h-12m-12 0h-12m-12 0h-12m-12 0h-12m-12 0h-12m-12 0h-12m-12 0h-12m-12 0h-12m-12 0h-12m-12 0h-12m-12 0h-12m-12 0h-12m-12 0h-12m-11.98 0h-12m-12 .02h-12m-12 0h-12m-12 0h-12m-12 0h-12m-12 0h-12m-12 0h-12m-12 0h-12m-12 0h-12m-12 0h-12m-12 0h-12m-12 0h-12m-12 0h-12m-12 0h-12m-12 0l-12 .02m-12 0h-12m-12 0h-12m-11.98 0h-12m-12 0h-12m-12 0h-12m-12 0h-12m-12 0h-12m-12 0h-12m-12 0h-12m-12 0h-12m-12 0h-12m-12 0h-12m-12 0h-12m-12 0l-12 .02m-12 0h-6l-.93-.08-.92-.22-.87-.36-.8-.5-.7-.6-.62-.72-.5-.8-.36-.87-.22-.9v-6.13m0-12.22V907.3m0-12.22v-12.22m0-12.22v-12.22m0-12.22v-12.22m0-12.23v-12.22m0-12.22v-12.2m0-12.23l-.02-12.22m0-12.22V736.2m0-12.2v-12.23m0-12.23v-12.22m0-12.22v-12.22m0-12.22v-12.22m0-12.22V614m0-12.22v-12.23m-.02-12.22V565.1m0-12.2v-12.23m0-12.22v-12.22m0-12.22v-12.2m0-12.24v-12.22m0-12.22V442.9m0-12.22v-12.22m-.02-12.22v-12.22m0-12.22v-12.23m0-12.22v-12.22m0-12.22v-12.2m0-12.23v-12.22m0-12.22v-6.1l.06-.95.22-.92.36-.87.5-.8.6-.73.72-.6.8-.5.88-.36.9-.2h6" stroke="#147eba" stroke-width="3" fill="none"/><path d="M239.13 424.94l-15.6 37.95h-5.55l-15.3-37.96h4.8c.6 0 1.05.15 1.35.3.45.3.6.75.9 1.2l9.75 24.75c.45 1.34 1.05 3 1.35 4.8.15-.9.45-1.66.75-2.56.3-.75.45-1.5.6-2.25l9.75-24.76c.15-.45.45-.75.9-1.05.3-.16.75-.3 1.35-.3h4.95zM283.83 424.94v37.95h-5.55v-26.1-1.36c0-.45.15-1.05.15-1.5l-12.15 22.65c-.45.9-1.2 1.34-2.1 1.34h-.9c-1.05 0-1.8-.45-2.1-1.35l-12.45-22.8c0 .6.15 1.2.15 1.5v27.6h-5.55v-37.96h4.65c.6 0 .9 0 1.2.15.3.14.6.3.9.9l12.15 22.04c.15.45.45 1.05.75 1.65.3.44.45 1.04.6 1.5.3-.46.45-1.06.75-1.66.3-.6.45-1.05.75-1.65l12-22.06c.3-.6.6-.75.9-.9.3-.15.6-.15 1.2-.15h4.65zM291.63 444.6h13.35v4.8h-13.35v-4.8z" stroke="#000" stroke-opacity="0" stroke-width="1.34" fill="#010101"/><path d="M312.63 534.44h-117.6c-9 0-16.2-7.2-16.2-16.2v-117.6c0-9 7.2-16.2 16.2-16.2h117.6c9 0 16.2 7.2 16.2 16.2v117.6c0 9-7.2 16.2-16.2 16.2zm-117.6-144.6c-6 0-10.8 4.8-10.8 10.8v117.6c0 6 4.8 10.8 10.8 10.8h117.6c6 0 10.8-4.8 10.8-10.8v-117.6c0-6-4.8-10.8-10.8-10.8h-117.6z" stroke="#000" stroke-opacity="0" stroke-width="1.34" fill="#010101"/><path d="M299.43 518.7c-.75 0-1.35-.6-1.35-1.36 0-.75.6-1.35 1.35-1.35h2.7c.75 0 1.35.6 1.35 1.34 0 .75-.6 1.35-1.35 1.35v-1.36 1.35h-2.7zm-7.95 0h-2.7c-.75 0-1.35-.6-1.35-1.36 0-.75.6-1.35 1.35-1.35h2.7c.75 0 1.35.6 1.35 1.34 0 .75-.6 1.35-1.35 1.35zm-10.65 0h-2.55c-.9 0-1.35-.6-1.35-1.36 0-.75.45-1.35 1.35-1.35h2.55c.9 0 1.35.6 1.35 1.34 0 .75-.6 1.35-1.35 1.35zm-10.65 0h-2.7c-.75 0-1.35-.6-1.35-1.36 0-.75.6-1.35 1.35-1.35h2.7c.75 0 1.35.6 1.35 1.34 0 .75-.6 1.35-1.35 1.35zm-10.65 0h-2.7c-.75 0-1.35-.6-1.35-1.36 0-.75.6-1.35 1.35-1.35h2.7c.75 0 1.35.6 1.35 1.34 0 .75-.6 1.35-1.35 1.35zm-10.65 0h-2.55c-.9 0-1.35-.6-1.35-1.36 0-.75.45-1.35 1.35-1.35h2.55c.9 0 1.35.6 1.35 1.34 0 .75-.6 1.35-1.35 1.35zm-10.65 0h-2.7c-.75 0-1.2-.6-1.2-1.36 0-.75.45-1.35 1.2-1.35h2.7c.9 0 1.35.6 1.35 1.34 0 .75-.45 1.35-1.35 1.35zm-10.5 0h-2.7c-.75 0-1.35-.6-1.35-1.36 0-.75.6-1.35 1.35-1.35h2.7c.75 0 1.35.6 1.35 1.34 0 .75-.75 1.35-1.35 1.35zm-10.65 0h-2.7c-.75 0-1.35-.6-1.35-1.36 0-.75.6-1.35 1.35-1.35h2.7c.75 0 1.35.6 1.35 1.34 0 .75-.6 1.35-1.35 1.35zm-10.65 0h-.9c-.6 0-1.35 0-1.95-.16-.75-.15-1.2-.75-1.05-1.65.15-.76.75-1.2 1.5-1.06.6.15 1.05.15 1.65.15h.75c.9 0 1.35.6 1.35 1.34 0 .75-.6 1.35-1.35 1.35zm102.75-3.16c-.3 0-.6-.15-.9-.45-.6-.6-.6-1.36-.15-1.96.6-.45.9-1.2 1.35-1.8.3-.75 1.05-.9 1.65-.75.75.3 1.05 1.2.75 1.8-.45.9-1.05 1.8-1.8 2.54-.15.45-.45.6-.9.6zm-111.75-1.35c-.45 0-.9-.3-1.2-.76-.6-.75-.9-1.65-1.2-2.85-.3-.6.3-1.36.9-1.5.6-.3 1.5.3 1.65.9.15.6.45 1.5.9 2.1.45.74.15 1.5-.45 1.94-.15 0-.3.15-.6.15zm114.3-8.7c-.75 0-1.35-.6-1.35-1.36v-2.7c0-.75.6-1.35 1.35-1.35.75 0 1.35.6 1.35 1.34v2.7c0 .6-.75 1.35-1.35 1.35zm-115.8-1.8c-.75 0-1.35-.46-1.35-1.36v-2.7c0-.75.6-1.2 1.35-1.2.75 0 1.35.45 1.35 1.2v2.7c0 .9-.6 1.35-1.35 1.35zm115.8-8.86c-.75 0-1.35-.6-1.35-1.35v-2.7c0-.9.6-1.36 1.35-1.36.75 0 1.35.45 1.35 1.35v2.7c0 .74-.75 1.34-1.35 1.34zm-115.8-1.65c-.75 0-1.35-.6-1.35-1.36v-2.7c0-.75.6-1.35 1.35-1.35.75 0 1.35.6 1.35 1.34v2.7c0 .6-.6 1.35-1.35 1.35zm115.8-9c-.75 0-1.35-.46-1.35-1.36v-2.7c0-.75.6-1.2 1.35-1.2.75 0 1.35.45 1.35 1.2v2.7c0 .75-.75 1.35-1.35 1.35zm-115.8-1.66c-.75 0-1.35-.6-1.35-1.35v-2.7c0-.76.6-1.36 1.35-1.36.75 0 1.35.6 1.35 1.35v2.7c0 .74-.6 1.34-1.35 1.34zm115.8-9c-.75 0-1.35-.6-1.35-1.35v-2.7c0-.76.6-1.36 1.35-1.36.75 0 1.35.6 1.35 1.35v2.7c0 .74-.75 1.34-1.35 1.34zm-115.8-1.8c-.75 0-1.35-.45-1.35-1.35v-2.56c0-.9.6-1.35 1.35-1.35.75 0 1.35.44 1.35 1.34v2.55c0 .9-.6 1.34-1.35 1.34zm115.8-8.7c-.75 0-1.35-.6-1.35-1.35V459c0-.76.6-1.36 1.35-1.36.75 0 1.35.6 1.35 1.35v2.7c0 .6-.75 1.34-1.35 1.34zm-115.8-1.8c-.75 0-1.35-.6-1.35-1.35v-2.7c0-.76.6-1.36 1.35-1.36.75 0 1.35.6 1.35 1.35v2.7c0 .74-.6 1.34-1.35 1.34zm115.8-9c-.75 0-1.35-.45-1.35-1.35v-2.56c0-.9.6-1.35 1.35-1.35.75 0 1.35.44 1.35 1.34v2.55c0 .9-.75 1.34-1.35 1.34zm-115.8-1.65c-.75 0-1.35-.6-1.35-1.36v-2.7c0-.75.6-1.35 1.35-1.35.75 0 1.35.6 1.35 1.34v2.7c0 .75-.6 1.35-1.35 1.35zm115.8-9c-.75 0-1.35-.46-1.35-1.36v-2.7c0-.75.6-1.2 1.35-1.2.75 0 1.35.45 1.35 1.2v2.7c0 .9-.75 1.35-1.35 1.35zm-115.8-1.66c-.75 0-1.35-.45-1.35-1.2v-2.7c0-.9.6-1.35 1.35-1.35.75 0 1.35.44 1.35 1.34v2.7c0 .6-.6 1.2-1.35 1.2zm115.8-8.85c-.75 0-1.35-.6-1.35-1.36v-2.7c0-.75.6-1.35 1.35-1.35.75 0 1.35.6 1.35 1.34v2.7c0 .6-.75 1.35-1.35 1.35zm-115.8-1.8c-.75 0-1.35-.46-1.35-1.36v-2.7c0-.75.6-1.2 1.35-1.2.75 0 1.35.45 1.35 1.2v2.7c0 .9-.6 1.35-1.35 1.35zm115.8-8.86c-.75 0-1.35-.6-1.35-1.35v-2.7c0-.9.6-1.36 1.35-1.36.75 0 1.35.45 1.35 1.35v2.7c0 .74-.75 1.34-1.35 1.34zm-115.8-1.65c-.75 0-1.35-.6-1.35-1.36v-2.7c0-.75.6-1.35 1.35-1.35.75 0 1.35.6 1.35 1.34v2.7c0 .6-.6 1.35-1.35 1.35zm115.35-9c-.45 0-1.05-.3-1.35-.9-.15-.76-.45-1.5-.9-2.1-.3-.76-.3-1.5.45-1.96.6-.3 1.5-.3 1.8.45.6.74 1.05 1.64 1.2 2.84.3.6-.15 1.35-.9 1.5 0 .15-.15.15-.3.15zm-114.3-1.5c-.15 0-.45 0-.45-.16-.75-.3-1.05-1.2-.75-1.8.45-.9 1.05-1.8 1.8-2.55.45-.46 1.35-.46 1.8-.16.6.6.6 1.35.15 1.95-.6.44-.9 1.2-1.35 1.8-.3.6-.75.9-1.2.9zm106.8-5.26h-.15c-.6-.15-1.05-.15-1.5-.15h-.9c-.9 0-1.35-.6-1.35-1.36 0-.75.45-1.35 1.35-1.35h.9c.6 0 1.35 0 1.95.14.75.15 1.2.75 1.05 1.65-.15.6-.75 1.04-1.35 1.04zm-10.65-.15h-2.7c-.75 0-1.2-.6-1.2-1.36 0-.75.45-1.35 1.2-1.35h2.7c.9 0 1.35.6 1.35 1.34 0 .75-.45 1.35-1.35 1.35zm-10.5 0h-2.7c-.75 0-1.35-.6-1.35-1.36 0-.75.6-1.35 1.35-1.35h2.7c.75 0 1.35.6 1.35 1.34 0 .75-.75 1.35-1.35 1.35zm-10.65 0h-2.7c-.75 0-1.35-.6-1.35-1.36 0-.75.6-1.35 1.35-1.35h2.7c.75 0 1.35.6 1.35 1.34 0 .75-.6 1.35-1.35 1.35zm-10.65 0h-2.55c-.9 0-1.35-.6-1.35-1.36 0-.75.45-1.35 1.35-1.35h2.55c.9 0 1.35.6 1.35 1.34 0 .75-.6 1.35-1.35 1.35zm-10.65 0h-2.7c-.75 0-1.35-.6-1.35-1.36 0-.75.6-1.35 1.35-1.35h2.7c.75 0 1.35.6 1.35 1.34 0 .75-.6 1.35-1.35 1.35zm-10.65 0h-2.7c-.75 0-1.35-.6-1.35-1.36 0-.75.6-1.35 1.35-1.35h2.7c.75 0 1.35.6 1.35 1.34 0 .75-.6 1.35-1.35 1.35zm-10.65 0h-2.55c-.9 0-1.35-.6-1.35-1.36 0-.75.45-1.35 1.35-1.35h2.55c.9 0 1.35.6 1.35 1.34 0 .75-.6 1.35-1.35 1.35zm-10.65 0h-2.7c-.75 0-1.2-.6-1.2-1.36 0-.75.45-1.35 1.2-1.35h2.7c.9 0 1.35.6 1.35 1.34 0 .75-.45 1.35-1.35 1.35zm-10.5 0h-2.7c-.75 0-1.35-.6-1.35-1.36 0-.75.6-1.35 1.35-1.35h2.7c.75 0 1.35.6 1.35 1.34 0 .75-.75 1.35-1.35 1.35zM227.13 474.44c-.15.15-.15.45-.3.45-.15.14-.3.14-.6.14s-.45-.15-.6-.3c-.3-.15-.6-.45-1.05-.6-.3-.15-.75-.3-1.2-.45-.6-.16-1.2-.3-1.95-.3-.6 0-1.2.14-1.8.3-.45.14-.9.44-1.2.6-.3.3-.45.74-.75 1.04-.3.45-.3.9-.3 1.35 0 .6.15 1.04.6 1.5.3.44.6.74 1.2 1.04.45.45 1.05.6 1.65.9.75.15 1.35.3 2.1.6.6.3 1.35.6 1.95.75.75.3 1.2.74 1.8 1.2.45.44.9 1.2 1.2 1.8.3.6.45 1.5.45 2.4 0 1.04-.15 1.94-.45 3-.45.9-.9 1.64-1.65 2.4-.6.6-1.5 1.2-2.55 1.5-.9.44-2.1.6-3.3.6-.75 0-1.5-.16-2.1-.3-.75-.16-1.35-.46-2.1-.6-.6-.3-1.2-.6-1.8-1.06-.6-.3-1.05-.75-1.5-1.2l1.05-1.8.45-.45c.15-.16.3-.16.45-.16.3 0 .6.15.9.45.3.3.6.6 1.05.74.45.3.9.6 1.65.9.6.15 1.2.3 2.1.3 1.35 0 2.4-.15 3.15-1.05.9-.6 1.05-1.5 1.05-2.7 0-.76-.15-1.2-.45-1.66-.3-.45-.75-.75-1.2-1.05-.6-.3-1.05-.6-1.8-.76-.6-.15-1.35-.3-1.95-.6-.75-.3-1.35-.6-2.1-.9-.6-.15-1.2-.6-1.65-1.2-.6-.45-.9-1.05-1.2-1.65-.3-.76-.6-1.66-.6-2.7 0-.76.15-1.66.6-2.4.3-.76.75-1.5 1.5-2.1.6-.76 1.35-1.06 2.4-1.5.9-.46 1.95-.6 3.15-.6 1.35 0 2.55.3 3.75.74 1.05.45 2.1 1.05 3 1.65l-1.05 1.64zM234.48 485.84c0 .9.15 1.65.45 2.4.3.6.6 1.2.9 1.65.45.44.9.9 1.5 1.2.6.14 1.2.14 1.95.14s1.35-.15 1.8-.15c.6-.16.9-.3 1.35-.6.45-.16.6-.46.9-.6.3 0 .6-.16.75-.16.15 0 .45.15.6.15l.9 1.34c-.3.6-.9 1.05-1.35 1.2-.45.3-1.05.75-1.5.9-.6.3-1.2.3-1.8.3-.45 0-1.2.15-1.8.15-1.2 0-2.25-.16-3.15-.46-.9-.45-1.8-.9-2.55-1.8-.6-.75-1.35-1.65-1.65-2.85-.45-1.06-.75-2.4-.75-3.6 0-1.2.15-2.4.6-3.3.3-.9.9-1.8 1.5-2.56.75-.6 1.5-1.35 2.4-1.65 1.05-.46 2.1-.76 3.45-.76 1.05 0 1.95.15 2.7.6.9.3 1.65.75 2.4 1.5.6.6 1.05 1.35 1.35 2.4.45.9.6 1.95.6 3.15 0 .6 0 .9-.15 1.04-.15.15-.45.3-.6.3h-10.8zm8.4-2.1c0-.6-.15-1.2-.3-1.65-.15-.6-.45-.9-.9-1.36-.15-.45-.6-.6-1.2-.9-.45-.3-1.05-.3-1.5-.3-1.2 0-2.25.45-3 1.05-.6.74-1.2 1.8-1.35 3.14h8.25zM252.48 480.3c.45-1.06 1.2-1.8 1.8-2.4.75-.46 1.65-.9 2.7-.9.45 0 .6 0 1.05.14.3.15.6.3.75.45l-.15 2.54c0 .15-.15.3-.3.45-.15.14-.15 0-.3 0s-.45 0-.6-.16c-.3 0-.75-.15-1.05-.15-.45 0-.9.14-1.35.3-.3.14-.6.44-1.05.74-.15.15-.45.45-.75.9-.3.3-.45.75-.6 1.35v10.2h-3.6v-16.5h2.1c.3 0 .6.14.75.3.15.14.3.3.3.6l.3 2.1zM265.38 472.34c0 .3 0 .6-.15.9l-.45.9c-.3.15-.45.3-.9.45-.3.14-.45.14-.9.14-.3 0-.6 0-.9-.15-.3-.16-.6-.3-.75-.46-.15-.3-.3-.45-.45-.9-.15-.3-.15-.45-.15-.9 0-.3 0-.75.15-.9l.45-.9c.3-.15.45-.3.75-.45.3-.16.45-.16.9-.16.3 0 .6 0 .9.15l.9.44c.15.3.3.45.45.9 0 .15.15.45.15.9zm-.6 4.95v16.5h-3.45v-16.5h3.45zM271.68 485.84c0 .9.15 1.65.45 2.4.15.6.45 1.2.9 1.65.3.44.9.9 1.5 1.2.45.14 1.2.14 1.8.14.6 0 1.35-.15 1.8-.15.3-.16.9-.3 1.35-.6.3-.16.6-.46.9-.6.3 0 .45-.16.6-.16.3 0 .6.15.75.15l.9 1.34c-.45.6-.9 1.05-1.35 1.2-.6.3-1.05.75-1.65.9-.45.15-1.2.3-1.65.3-.6 0-1.2.15-1.8.15-1.2 0-2.25-.16-3.15-.46-.9-.45-1.95-.9-2.55-1.8-.75-.75-1.35-1.65-1.8-2.85-.3-1.06-.6-2.4-.6-3.6 0-1.2.15-2.4.45-3.3.45-.9 1.05-1.8 1.65-2.56.75-.6 1.5-1.35 2.4-1.65.9-.46 1.95-.76 3.3-.76 1.05 0 2.1.15 2.85.6.75.3 1.65.75 2.25 1.5.75.6 1.05 1.35 1.5 2.4.45.9.6 1.95.6 3.15 0 .6 0 .9-.15 1.04-.15.15-.3.3-.75.3h-10.5zm8.4-2.1c0-.6-.15-1.2-.3-1.65-.15-.6-.3-.9-.75-1.36-.3-.45-.75-.6-1.2-.9-.6-.3-1.05-.3-1.65-.3-1.2 0-2.25.45-2.85 1.05-.75.74-1.2 1.8-1.35 3.14h8.1zM296.28 480.3c-.15.14-.15.3-.3.3s-.3.14-.45.14c-.15 0-.3 0-.45-.15l-.9-.46c-.15 0-.6-.15-1.05-.3-.3-.15-.75-.15-1.35-.15-.3 0-.75 0-1.2.14-.3.15-.6.3-.9.3-.3.15-.45.45-.45.75-.15.3-.15.44-.15.74 0 .45.15.75.3.9.3.3.6.6 1.05.75.3.14.75.44 1.2.6.6 0 1.2.14 1.5.44.45.3 1.05.45 1.5.6.6.15.9.45 1.35.75.45.3.6.6.9 1.2.3.6.45 1.04.45 1.8 0 .74-.15 1.34-.45 2.1-.3.6-.6 1.2-1.2 1.64-.45.6-1.2.9-1.95 1.2-.9.15-1.8.3-2.85.3-.45 0-1.05 0-1.65-.15-.45-.16-1.05-.16-1.35-.3-.6-.16-1.05-.46-1.35-.76-.45-.3-.9-.45-1.05-.75l.75-1.36.45-.45c.15-.16.15-.16.45-.16.3 0 .45.15.75.3.15.15.45.3.75.6.3.15.6.15 1.05.45.45.14.9.3 1.65.3.45 0 .9 0 1.35-.16l.9-.45c.3-.3.45-.46.45-.9.15-.3.15-.46.15-.9 0-.46-.15-.76-.3-1.06-.3-.3-.6-.6-1.05-.75-.3 0-.75-.3-1.2-.46-.6-.15-1.2-.3-1.5-.6-.6-.15-1.05-.3-1.5-.45-.6-.3-.9-.6-1.35-.9-.45-.16-.6-.76-.9-1.2-.6-.6-.75-1.2-.75-1.96 0-.6.15-1.35.45-1.8.3-.6.75-1.2 1.2-1.65.6-.46 1.2-.76 1.95-1.06.75-.3 1.5-.45 2.4-.45 1.2 0 2.25.14 3.15.6.9.3 1.65.74 2.25 1.34l-.75 1.35z" stroke="#000" stroke-opacity="0" stroke-width="1.34" fill="#010101"/><path d="M428.83 313.92a6 6 0 0 1 6-6h408a6 6 0 0 1 6 6v268a6 6 0 0 1-6 6h-408a6 6 0 0 1-6-6z" fill="#248814" fill-opacity=".13"/><path d="M428.83 307.92h56v56h-56v-56z" stroke="#fff" stroke-opacity="0" fill="#248814"/><path d="M472.2 330.1c-.14-.17-.33-.26-.55-.26h-5.15v-5.57c-.03-2.54-.96-4.7-2.84-6.4-1.9-1.84-4.15-2.75-6.77-2.75-2.66 0-4.9.83-6.8 2.62-1.9 1.7-2.88 3.87-2.9 6.4v5.66h-5.16c-.25 0-.44.08-.6.25-.15.17-.2.33-.2.58v25.3c0 .4.33.8.8.8h29.58c.47 0 .8-.4.8-.8v-25.3c0-.2-.05-.37-.2-.54zm-23.45-5.9c.03-2.14.8-3.88 2.37-5.3 1.62-1.5 3.53-2.2 5.74-2.2 2.22 0 4.12.75 5.7 2.24 1.54 1.42 2.32 3.2 2.32 5.33v5.57h-16.16zm22.1 30.94H442.8v-23.72h28.02z" stroke="#fff" stroke-opacity="0" fill="#fff"/><path d="M456.03 345.23v6.24h1.6v-6.23c2.13-.4 3.62-2.2 3.63-4.35 0-2.44-1.97-4.42-4.4-4.44-2.2-.03-4.06 1.5-4.44 3.68-.4 2.4 1.2 4.68 3.6 5.1zm.82-7.16c.78 0 1.44.27 2 .82.54.55.82 1.2.8 2 .03 1.53-1.2 2.8-2.74 2.8h-.05c-1.56.13-2.92-1.04-3.04-2.6-.1-1.56 1.06-2.93 2.62-3.03.15-.02.28-.02.43 0z" stroke="#fff" stroke-opacity="0" fill="#fff"/><use xlink:href="#w" transform="matrix(1,0,0,1,499.83024691358037,327.91666666666674) translate(0 14.4)"/><use xlink:href="#i" transform="matrix(1,0,0,1,499.83024691358037,327.91666666666674) translate(59.900000000000006 14.4)"/><use xlink:href="#x" transform="matrix(1,0,0,1,499.83024691358037,327.91666666666674) translate(70.85000000000001 14.4)"/><path d="M458.04 461.94h-126.7v-5h126.7zm61.37 0H494.5v-5h24.93z" stroke="#5e5e5e" stroke-width=".05" fill="#5e5e5e"/><path d="M521.9 461.94h-2.56v-5h2.57z" stroke="#5e5e5e" stroke-width=".05" fill="#5e5e5e"/><path d="M331.4 461.94h-2.57v-5h2.56z" fill="#5e5e5e"/><path d="M331.42 461.97h-2.6v-5.05h2.6zm-2.56-5v4.95h2.5v-4.95z" stroke="#5e5e5e" stroke-width=".05" fill="#5e5e5e"/><use xlink:href="#k" transform="matrix(1,0,0,1,458.03506181874593,448.77380952380946) translate(0 14.222222222222223)"/><path d="M77.84 461.94H65.76v-5h12.08zm98.5 0h-62.06v-5h62.05z" stroke="#5e5e5e" stroke-width=".05" fill="#5e5e5e"/><path d="M178.83 461.94h-2.56v-5h2.56z" fill="#5e5e5e"/><path d="M178.86 461.97h-2.62v-5.05h2.62zm-2.57-5v4.95h2.5v-4.95zM65.83 461.94h-2.57v-5h2.57z" stroke="#5e5e5e" stroke-width=".05" fill="#5e5e5e"/><use xlink:href="#l" transform="matrix(1,0,0,1,77.83834225383634,448.77380952380946) translate(0 14.222222222222223)"/><path d="M498.83 487.92h295v73.04h-295z" fill="#fff"/><path d="M498.83 487.92h295v36h-295z" fill="#ccc"/><path d="M498.83 559.92h295v1.04h-295z" fill="#f0f0f0"/><path d="M658 487.92v73.04M498.83 487.92h295v73.04h-295z" stroke="#000" stroke-width="2" fill="none"/><use xlink:href="#m" transform="matrix(1,0,0,1,504.83024691358037,487.91666666666674) translate(29.074999999999996 21.6)"/><use xlink:href="#n" transform="matrix(1,0,0,1,664.013028370534,487.91666666666674) translate(24.549999999999997 21.6)"/><use xlink:href="#o" transform="matrix(1,0,0,1,664.013028370534,487.91666666666674) translate(66.5 21.6)"/><use xlink:href="#p" transform="matrix(1,0,0,1,504.83024691358037,523.9166666666667) translate(39 21.6)"/><use xlink:href="#q" transform="matrix(1,0,0,1,664.013028370534,523.9166666666667) translate(44.025 21.6)"/><path d="M428.83 630.67a6 6 0 0 1 6-6h408a6 6 0 0 1 6 6v268a6 6 0 0 1-6 6h-408a6 6 0 0 1-6-6z" fill="#248814" fill-opacity=".13"/><path d="M428.83 624.67h56v56h-56v-56z" stroke="#fff" stroke-opacity="0" fill="#248814"/><path d="M472.2 646.84c-.14-.16-.33-.25-.55-.25h-5.15V641c-.03-2.54-.96-4.7-2.84-6.4-1.9-1.84-4.15-2.75-6.77-2.75-2.66 0-4.9.83-6.8 2.62-1.9 1.7-2.88 3.86-2.9 6.4v5.65h-5.16c-.25 0-.44.08-.6.25-.15.17-.2.33-.2.58v25.3c0 .4.33.8.8.8h29.58c.47 0 .8-.4.8-.8v-25.3c0-.2-.05-.37-.2-.54zm-23.45-5.9c.03-2.13.8-3.87 2.37-5.3 1.62-1.5 3.53-2.2 5.74-2.2 2.22 0 4.12.76 5.7 2.25 1.54 1.4 2.32 3.2 2.32 5.32v5.57h-16.16zm22.1 30.95H442.8v-23.73h28.02z" stroke="#fff" stroke-opacity="0" fill="#fff"/><path d="M456.03 661.98v6.24h1.6V662c2.13-.4 3.62-2.2 3.63-4.36 0-2.43-1.97-4.4-4.4-4.43-2.2-.02-4.06 1.5-4.44 3.7-.4 2.4 1.2 4.67 3.6 5.08zm.82-7.16c.78 0 1.44.27 2 .82.54.56.82 1.22.8 2 .03 1.54-1.2 2.8-2.74 2.82h-.05c-1.56.12-2.92-1.05-3.04-2.6-.1-1.57 1.06-2.94 2.62-3.04.15-.02.28-.02.43 0z" stroke="#fff" stroke-opacity="0" fill="#fff"/><use xlink:href="#y" transform="matrix(1,0,0,1,499.83024691358037,644.6666666666666) translate(0 14.4)"/><use xlink:href="#i" transform="matrix(1,0,0,1,499.83024691358037,644.6666666666666) translate(61.900000000000006 14.4)"/><use xlink:href="#z" transform="matrix(1,0,0,1,499.83024691358037,644.6666666666666) translate(72.85000000000001 14.4)"/><path d="M498.83 769.67h295v75.5h-295z" fill="#fff"/><path d="M498.83 769.67h295v36h-295z" fill="#ccc"/><path d="M498.83 841.67h295v3.5h-295z" fill="#f0f0f0"/><path d="M658 769.67v75.5M498.83 769.67h295v75.5h-295z" stroke="#000" stroke-width="2" fill="none"/><use xlink:href="#m" transform="matrix(1,0,0,1,504.83024691358037,769.6666666666666) translate(29.074999999999996 21.6)"/><use xlink:href="#n" transform="matrix(1,0,0,1,664.013028370534,769.6666666666666) translate(24.549999999999997 21.6)"/><use xlink:href="#o" transform="matrix(1,0,0,1,664.013028370534,769.6666666666666) translate(66.5 21.6)"/><use xlink:href="#p" transform="matrix(1,0,0,1,504.83024691358037,805.6666666666666) translate(39 21.6)"/><use xlink:href="#q" transform="matrix(1,0,0,1,664.013028370534,805.6666666666666) translate(44.025 21.6)"/><path d="M-325.67 879.67h117.13v39.6h-117.13z" fill="#fff" fill-opacity="0"/><use xlink:href="#A" transform="matrix(1,0,0,1,-320.66626986919357,884.6666666666669) translate(0 19.73333333333333)"/><path d="M607.02-530.33h271.8v43.77h-271.8z" fill="#147eba" fill-opacity=".13"/><use xlink:href="#B" transform="matrix(1,0,0,1,612.0242869135802,-525.3333333333334) translate(0 25.238281249999986)"/><path d="M80.08 89.67a6 6 0 0 1 6-6h88a6 6 0 0 1 6 6v48a6 6 0 0 1-6 6h-88a6 6 0 0 1-6-6z" stroke="#5e5e5e" stroke-width="3" fill="#ffcb06"/><use xlink:href="#C" transform="matrix(1,0,0,1,85.08024691358037,88.66666666666666) translate(0.9907407407408328 28.06944444444442)"/><use xlink:href="#D" transform="matrix(1,0,0,1,85.08024691358037,88.66666666666666) translate(53.620370370370345 28.06944444444442)"/><path d="M80.08 368.92a6 6 0 0 1 6-6h88a6 6 0 0 1 6 6v48a6 6 0 0 1-6 6h-88a6 6 0 0 1-6-6z" stroke="#5e5e5e" stroke-width="3" fill="#ffcb06"/><g><use xlink:href="#C" transform="matrix(1,0,0,1,85.08024691358037,367.91666666666663) translate(0.9907407407408328 28.06944444444442)"/><use xlink:href="#D" transform="matrix(1,0,0,1,85.08024691358037,367.91666666666663) translate(53.620370370370345 28.06944444444442)"/></g><path d="M308.32-282.83h-52v252.75h-5v-257.75h57zm118.05 0h-81.6v-5h81.6z" stroke="#5e5e5e" stroke-width=".05" fill="#5e5e5e"/><path d="M428.87-282.83h-2.57v-5h2.57z" fill="#5e5e5e"/><path d="M428.9-282.8h-2.62v-5.06h2.6zm-2.57-5v4.94h2.5v-4.95z" stroke="#5e5e5e" stroke-width=".05" fill="#5e5e5e"/><path d="M256.33-27.58h-5v-2.57h5z" fill="#5e5e5e"/><path d="M256.36-27.56h-5.05v-2.6h5.06zm-5-2.56v2.5h4.95v-2.5z" stroke="#5e5e5e" stroke-width=".05" fill="#5e5e5e"/><g><use xlink:href="#E" transform="matrix(1,0,0,1,308.3197208253587,-296.00000000000006) translate(0 14.222222222222223)"/></g><path d="M260.08-117.33a6 6 0 0 1 6-6h88a6 6 0 0 1 6 6v54a6 6 0 0 1-6 6h-88a6 6 0 0 1-6-6z" stroke="#5e5e5e" stroke-width="3" fill="#ffcb06"/><g><use xlink:href="#F" transform="matrix(1,0,0,1,265.08024691358037,-118.33333333333329) translate(4.015432098765515 29.94444444444442)"/><use xlink:href="#D" transform="matrix(1,0,0,1,265.08024691358037,-118.33333333333329) translate(50.59567901234566 29.94444444444442)"/></g><path d="M256.33 762.17h58.5v5h-63.5V536.94h5zm170.04 0v5h-75.1v-5z" stroke="#5e5e5e" stroke-width=".05" fill="#5e5e5e"/><path d="M428.87 767.17h-2.57v-5h2.57z" fill="#5e5e5e"/><path d="M428.9 767.2h-2.62v-5.06h2.6zm-2.57-5v4.94h2.5v-4.95z" stroke="#5e5e5e" stroke-width=".05" fill="#5e5e5e"/><path d="M256.33 537h-5v-2.56h5z" fill="#5e5e5e"/><path d="M256.36 537.03h-5.05v-2.6h5.06zm-5-2.56v2.5h4.95v-2.5z" stroke="#5e5e5e" stroke-width=".05" fill="#5e5e5e"/><g><use xlink:href="#E" transform="matrix(1,0,0,1,314.82726145853155,754) translate(0 14.222222222222223)"/></g><path d="M260.08 585.92a6 6 0 0 1 6-6h88a6 6 0 0 1 6 6v54a6 6 0 0 1-6 6h-88a6 6 0 0 1-6-6z" stroke="#5e5e5e" stroke-width="3" fill="#ffcb06"/><g><use xlink:href="#F" transform="matrix(1,0,0,1,265.08024691358037,584.9166666666667) translate(4.015432098765515 29.94444444444442)"/><use xlink:href="#D" transform="matrix(1,0,0,1,265.08024691358037,584.9166666666667) translate(50.59567901234566 29.94444444444442)"/></g><defs><path fill="#248814" d="M185-189c-5-48-123-54-124 2 14 75 158 14 163 119 3 78-121 87-175 55-17-10-28-26-33-46l33-7c5 56 141 63 141-1 0-78-155-14-162-118-5-82 145-84 179-34 5 7 8 16 11 25" id="G"/><path fill="#248814" d="M100-194c63 0 86 42 84 106H49c0 40 14 67 53 68 26 1 43-12 49-29l28 8c-11 28-37 45-77 45C44 4 14-33 15-96c1-61 26-98 85-98zm52 81c6-60-76-77-97-28-3 7-6 17-6 28h103" id="H"/><path fill="#248814" d="M96-169c-40 0-48 33-48 73s9 75 48 75c24 0 41-14 43-38l32 2c-6 37-31 61-74 61-59 0-76-41-82-99-10-93 101-131 147-64 4 7 5 14 7 22l-32 3c-4-21-16-35-41-35" id="I"/><path fill="#248814" d="M84 4C-5 8 30-112 23-190h32v120c0 31 7 50 39 49 72-2 45-101 50-169h31l1 190h-30c-1-10 1-25-2-33-11 22-28 36-60 37" id="J"/><path fill="#248814" d="M114-163C36-179 61-72 57 0H25l-1-190h30c1 12-1 29 2 39 6-27 23-49 58-41v29" id="K"/><path fill="#248814" d="M24-231v-30h32v30H24zM24 0v-190h32V0H24" id="L"/><path fill="#248814" d="M59-47c-2 24 18 29 38 22v24C64 9 27 4 27-40v-127H5v-23h24l9-43h21v43h35v23H59v120" id="M"/><path fill="#248814" d="M179-190L93 31C79 59 56 82 12 73V49c39 6 53-20 64-50L1-190h34L92-34l54-156h33" id="N"/><g id="a"><use transform="matrix(0.09320987654320984,0,0,0.09320987654320984,0,0)" xlink:href="#G"/><use transform="matrix(0.09320987654320984,0,0,0.09320987654320984,22.37037037037036,0)" xlink:href="#H"/><use transform="matrix(0.09320987654320984,0,0,0.09320987654320984,41.01234567901233,0)" xlink:href="#I"/><use transform="matrix(0.09320987654320984,0,0,0.09320987654320984,57.7901234567901,0)" xlink:href="#J"/><use transform="matrix(0.09320987654320984,0,0,0.09320987654320984,76.43209876543207,0)" xlink:href="#K"/><use transform="matrix(0.09320987654320984,0,0,0.09320987654320984,87.52407407407404,0)" xlink:href="#L"/><use transform="matrix(0.09320987654320984,0,0,0.09320987654320984,94.88765432098761,0)" xlink:href="#M"/><use transform="matrix(0.09320987654320984,0,0,0.09320987654320984,104.2086419753086,0)" xlink:href="#N"/></g><path fill="#248814" d="M137 0h-34L2-248h35l83 218 83-218h36" id="O"/><path fill="#248814" d="M30-248c87 1 191-15 191 75 0 78-77 80-158 76V0H30v-248zm33 125c57 0 124 11 124-50 0-59-68-47-124-48v98" id="P"/><path fill="#248814" d="M212-179c-10-28-35-45-73-45-59 0-87 40-87 99 0 60 29 101 89 101 43 0 62-24 78-52l27 14C228-24 195 4 139 4 59 4 22-46 18-125c-6-104 99-153 187-111 19 9 31 26 39 46" id="Q"/><g id="b"><use transform="matrix(0.09320987654320984,0,0,0.09320987654320984,0,0)" xlink:href="#O"/><use transform="matrix(0.09320987654320984,0,0,0.09320987654320984,22.37037037037036,0)" xlink:href="#P"/><use transform="matrix(0.09320987654320984,0,0,0.09320987654320984,44.74074074074072,0)" xlink:href="#Q"/></g><path fill="#147eba" d="M115-194c55 1 70 41 70 98S169 2 115 4C84 4 66-9 55-30l1 105H24l-1-265h31l2 30c10-21 28-34 59-34zm-8 174c40 0 45-34 45-75s-6-73-45-74c-42 0-51 32-51 76 0 43 10 73 51 73" id="R"/><path fill="#147eba" d="M114-163C36-179 61-72 57 0H25l-1-190h30c1 12-1 29 2 39 6-27 23-49 58-41v29" id="S"/><path fill="#147eba" d="M24-231v-30h32v30H24zM24 0v-190h32V0H24" id="T"/><path fill="#147eba" d="M108 0H70L1-190h34L89-25l56-165h34" id="U"/><path fill="#147eba" d="M141-36C126-15 110 5 73 4 37 3 15-17 15-53c-1-64 63-63 125-63 3-35-9-54-41-54-24 1-41 7-42 31l-33-3c5-37 33-52 76-52 45 0 72 20 72 64v82c-1 20 7 32 28 27v20c-31 9-61-2-59-35zM48-53c0 20 12 33 32 33 41-3 63-29 60-74-43 2-92-5-92 41" id="V"/><path fill="#147eba" d="M59-47c-2 24 18 29 38 22v24C64 9 27 4 27-40v-127H5v-23h24l9-43h21v43h35v23H59v120" id="W"/><path fill="#147eba" d="M100-194c63 0 86 42 84 106H49c0 40 14 67 53 68 26 1 43-12 49-29l28 8c-11 28-37 45-77 45C44 4 14-33 15-96c1-61 26-98 85-98zm52 81c6-60-76-77-97-28-3 7-6 17-6 28h103" id="X"/><path fill="#147eba" d="M27 0v-27h64v-190l-56 39v-29l58-41h29v221h61V0H27" id="Y"/><g id="c"><use transform="matrix(0.05,0,0,0.05,0,0)" xlink:href="#R"/><use transform="matrix(0.05,0,0,0.05,10,0)" xlink:href="#S"/><use transform="matrix(0.05,0,0,0.05,15.949999999999998,0)" xlink:href="#T"/><use transform="matrix(0.05,0,0,0.05,19.9,0)" xlink:href="#U"/><use transform="matrix(0.05,0,0,0.05,28.899999999999995,0)" xlink:href="#V"/><use transform="matrix(0.05,0,0,0.05,38.9,0)" xlink:href="#W"/><use transform="matrix(0.05,0,0,0.05,43.9,0)" xlink:href="#X"/><use transform="matrix(0.05,0,0,0.05,53.900000000000006,0)" xlink:href="#Y"/></g><path fill="#147eba" d="M16-82v-28h88v28H16" id="Z"/><use transform="matrix(0.05,0,0,0.05,0,0)" xlink:href="#Z" id="d"/><path fill="#147eba" d="M101-251c68 0 85 55 85 127S166 4 100 4C33 4 14-52 14-124c0-73 17-127 87-127zm-1 229c47 0 54-49 54-102s-4-102-53-102c-51 0-55 48-55 102 0 53 5 102 54 102" id="aa"/><path fill="#147eba" d="M33 0v-38h34V0H33" id="ab"/><path fill="#147eba" d="M101-251c82-7 93 87 43 132L82-64C71-53 59-42 53-27h129V0H18c2-99 128-94 128-182 0-28-16-43-45-43s-46 15-49 41l-32-3c6-41 34-60 81-64" id="ac"/><path fill="#147eba" d="M0 4l72-265h28L28 4H0" id="ad"/><path fill="#147eba" d="M155-56V0h-30v-56H8v-25l114-167h33v167h35v25h-35zm-30-156c-27 46-58 90-88 131h88v-131" id="ae"/><g id="e"><use transform="matrix(0.05,0,0,0.05,0,0)" xlink:href="#Y"/><use transform="matrix(0.05,0,0,0.05,10,0)" xlink:href="#aa"/><use transform="matrix(0.05,0,0,0.05,20,0)" xlink:href="#ab"/><use transform="matrix(0.05,0,0,0.05,25,0)" xlink:href="#Y"/><use transform="matrix(0.05,0,0,0.05,35,0)" xlink:href="#aa"/><use transform="matrix(0.05,0,0,0.05,45,0)" xlink:href="#aa"/><use transform="matrix(0.05,0,0,0.05,55,0)" xlink:href="#ab"/><use transform="matrix(0.05,0,0,0.05,60,0)" xlink:href="#ac"/><use transform="matrix(0.05,0,0,0.05,70,0)" xlink:href="#ab"/><use transform="matrix(0.05,0,0,0.05,75,0)" xlink:href="#aa"/><use transform="matrix(0.05,0,0,0.05,85,0)" xlink:href="#ad"/><use transform="matrix(0.05,0,0,0.05,90,0)" xlink:href="#ac"/><use transform="matrix(0.05,0,0,0.05,100,0)" xlink:href="#ae"/></g><g id="f"><use transform="matrix(0.05,0,0,0.05,0,0)" xlink:href="#R"/><use transform="matrix(0.05,0,0,0.05,10,0)" xlink:href="#S"/><use transform="matrix(0.05,0,0,0.05,15.949999999999998,0)" xlink:href="#T"/><use transform="matrix(0.05,0,0,0.05,19.9,0)" xlink:href="#U"/><use transform="matrix(0.05,0,0,0.05,28.899999999999995,0)" xlink:href="#V"/><use transform="matrix(0.05,0,0,0.05,38.9,0)" xlink:href="#W"/><use transform="matrix(0.05,0,0,0.05,43.9,0)" xlink:href="#X"/><use transform="matrix(0.05,0,0,0.05,53.900000000000006,0)" xlink:href="#ac"/></g><path fill="#147eba" d="M54-142c48-35 137-8 131 61C196 18 31 33 14-55l32-4c7 23 22 37 52 37 35-1 51-22 54-58 4-55-73-65-99-34H22l8-134h141v27H59" id="af"/><g id="g"><use transform="matrix(0.05,0,0,0.05,0,0)" xlink:href="#Y"/><use transform="matrix(0.05,0,0,0.05,10,0)" xlink:href="#aa"/><use transform="matrix(0.05,0,0,0.05,20,0)" xlink:href="#ab"/><use transform="matrix(0.05,0,0,0.05,25,0)" xlink:href="#Y"/><use transform="matrix(0.05,0,0,0.05,35,0)" xlink:href="#aa"/><use transform="matrix(0.05,0,0,0.05,45,0)" xlink:href="#aa"/><use transform="matrix(0.05,0,0,0.05,55,0)" xlink:href="#ab"/><use transform="matrix(0.05,0,0,0.05,60,0)" xlink:href="#af"/><use transform="matrix(0.05,0,0,0.05,70,0)" xlink:href="#ab"/><use transform="matrix(0.05,0,0,0.05,75,0)" xlink:href="#aa"/><use transform="matrix(0.05,0,0,0.05,85,0)" xlink:href="#ad"/><use transform="matrix(0.05,0,0,0.05,90,0)" xlink:href="#ac"/><use transform="matrix(0.05,0,0,0.05,100,0)" xlink:href="#ae"/></g><path fill="#248814" d="M210-169c-67 3-38 105-44 169h-31v-121c0-29-5-50-35-48C34-165 62-65 56 0H25l-1-190h30c1 10-1 24 2 32 10-44 99-50 107 0 11-21 27-35 58-36 85-2 47 119 55 194h-31v-121c0-29-5-49-35-48" id="ag"/><path fill="#248814" d="M177-190C167-65 218 103 67 71c-23-6-38-20-44-43l32-5c15 47 100 32 89-28v-30C133-14 115 1 83 1 29 1 15-40 15-95c0-56 16-97 71-98 29-1 48 16 59 35 1-10 0-23 2-32h30zM94-22c36 0 50-32 50-73 0-42-14-75-50-75-39 0-46 34-46 75s6 73 46 73" id="ah"/><path fill="#248814" d="M27 0v-27h64v-190l-56 39v-29l58-41h29v221h61V0H27" id="ai"/><g id="h"><use transform="matrix(0.05,0,0,0.05,0,0)" xlink:href="#ag"/><use transform="matrix(0.05,0,0,0.05,14.950000000000001,0)" xlink:href="#ah"/><use transform="matrix(0.05,0,0,0.05,24.950000000000003,0)" xlink:href="#ag"/><use transform="matrix(0.05,0,0,0.05,39.900000000000006,0)" xlink:href="#M"/><use transform="matrix(0.05,0,0,0.05,44.900000000000006,0)" xlink:href="#ai"/></g><path fill="#248814" d="M16-82v-28h88v28H16" id="aj"/><use transform="matrix(0.05,0,0,0.05,0,0)" xlink:href="#aj" id="i"/><path fill="#248814" d="M101-251c68 0 85 55 85 127S166 4 100 4C33 4 14-52 14-124c0-73 17-127 87-127zm-1 229c47 0 54-49 54-102s-4-102-53-102c-51 0-55 48-55 102 0 53 5 102 54 102" id="ak"/><path fill="#248814" d="M33 0v-38h34V0H33" id="al"/><path fill="#248814" d="M0 4l72-265h28L28 4H0" id="am"/><path fill="#248814" d="M101-251c82-7 93 87 43 132L82-64C71-53 59-42 53-27h129V0H18c2-99 128-94 128-182 0-28-16-43-45-43s-46 15-49 41l-32-3c6-41 34-60 81-64" id="an"/><path fill="#248814" d="M155-56V0h-30v-56H8v-25l114-167h33v167h35v25h-35zm-30-156c-27 46-58 90-88 131h88v-131" id="ao"/><g id="j"><use transform="matrix(0.05,0,0,0.05,0,0)" xlink:href="#ai"/><use transform="matrix(0.05,0,0,0.05,10,0)" xlink:href="#ak"/><use transform="matrix(0.05,0,0,0.05,20,0)" xlink:href="#al"/><use transform="matrix(0.05,0,0,0.05,25,0)" xlink:href="#ai"/><use transform="matrix(0.05,0,0,0.05,35,0)" xlink:href="#ak"/><use transform="matrix(0.05,0,0,0.05,45,0)" xlink:href="#ak"/><use transform="matrix(0.05,0,0,0.05,55,0)" xlink:href="#al"/><use transform="matrix(0.05,0,0,0.05,60,0)" xlink:href="#ak"/><use transform="matrix(0.05,0,0,0.05,70,0)" xlink:href="#al"/><use transform="matrix(0.05,0,0,0.05,75,0)" xlink:href="#ak"/><use transform="matrix(0.05,0,0,0.05,85,0)" xlink:href="#am"/><use transform="matrix(0.05,0,0,0.05,90,0)" xlink:href="#an"/><use transform="matrix(0.05,0,0,0.05,100,0)" xlink:href="#ao"/></g><path fill="#333" d="M185-48c-13 30-37 53-82 52C43 2 14-33 14-96s30-98 90-98c62 0 83 45 84 108H66c0 31 8 55 39 56 18 0 30-7 34-22zm-45-69c5-46-57-63-70-21-2 6-4 13-4 21h74" id="ap"/><path fill="#333" d="M115-3C79 11 28 4 28-45v-112H4v-33h27l15-45h31v45h36v33H77v99c-1 23 16 31 38 25v30" id="aq"/><path fill="#333" d="M114-157C55-157 80-60 75 0H25v-261h50l-1 109c12-26 28-41 61-42 86-1 58 113 63 194h-50c-7-57 23-157-34-157" id="ar"/><path fill="#333" d="M101-251c68 0 84 54 84 127C185-50 166 4 99 4S15-52 14-124c-1-75 17-127 87-127zm-1 216c37-5 36-46 36-89s4-89-36-89c-39 0-36 45-36 89 0 43-3 85 36 89" id="as"/><g id="k"><use transform="matrix(0.04938271604938272,0,0,0.04938271604938272,0,0)" xlink:href="#ap"/><use transform="matrix(0.04938271604938272,0,0,0.04938271604938272,9.876543209876544,0)" xlink:href="#aq"/><use transform="matrix(0.04938271604938272,0,0,0.04938271604938272,15.753086419753087,0)" xlink:href="#ar"/><use transform="matrix(0.04938271604938272,0,0,0.04938271604938272,26.567901234567902,0)" xlink:href="#as"/></g><path fill="#333" d="M182-182c0 78-84 86-111 141h115V0H12c-6-101 99-100 120-180 1-22-12-31-33-32-23 0-32 14-35 34l-49-3c5-45 32-70 84-70 51 0 83 22 83 69" id="at"/><g id="l"><use transform="matrix(0.04938271604938272,0,0,0.04938271604938272,0,0)" xlink:href="#ap"/><use transform="matrix(0.04938271604938272,0,0,0.04938271604938272,9.876543209876544,0)" xlink:href="#aq"/><use transform="matrix(0.04938271604938272,0,0,0.04938271604938272,15.753086419753087,0)" xlink:href="#ar"/><use transform="matrix(0.04938271604938272,0,0,0.04938271604938272,26.567901234567902,0)" xlink:href="#at"/></g><path d="M30-248c118-7 216 8 213 122C240-48 200 0 122 0H30v-248zM63-27c89 8 146-16 146-99s-60-101-146-95v194" id="au"/><path d="M100-194c63 0 86 42 84 106H49c0 40 14 67 53 68 26 1 43-12 49-29l28 8c-11 28-37 45-77 45C44 4 14-33 15-96c1-61 26-98 85-98zm52 81c6-60-76-77-97-28-3 7-6 17-6 28h103" id="av"/><path d="M135-143c-3-34-86-38-87 0 15 53 115 12 119 90S17 21 10-45l28-5c4 36 97 45 98 0-10-56-113-15-118-90-4-57 82-63 122-42 12 7 21 19 24 35" id="aw"/><path d="M59-47c-2 24 18 29 38 22v24C64 9 27 4 27-40v-127H5v-23h24l9-43h21v43h35v23H59v120" id="ax"/><path d="M24-231v-30h32v30H24zM24 0v-190h32V0H24" id="ay"/><path d="M117-194c89-4 53 116 60 194h-32v-121c0-31-8-49-39-48C34-167 62-67 57 0H25l-1-190h30c1 10-1 24 2 32 11-22 29-35 61-36" id="az"/><path d="M141-36C126-15 110 5 73 4 37 3 15-17 15-53c-1-64 63-63 125-63 3-35-9-54-41-54-24 1-41 7-42 31l-33-3c5-37 33-52 76-52 45 0 72 20 72 64v82c-1 20 7 32 28 27v20c-31 9-61-2-59-35zM48-53c0 20 12 33 32 33 41-3 63-29 60-74-43 2-92-5-92 41" id="aA"/><path d="M100-194c62-1 85 37 85 99 1 63-27 99-86 99S16-35 15-95c0-66 28-99 85-99zM99-20c44 1 53-31 53-75 0-43-8-75-51-75s-53 32-53 75 10 74 51 75" id="aB"/><g id="m"><use transform="matrix(0.05,0,0,0.05,0,0)" xlink:href="#au"/><use transform="matrix(0.05,0,0,0.05,12.950000000000001,0)" xlink:href="#av"/><use transform="matrix(0.05,0,0,0.05,22.950000000000003,0)" xlink:href="#aw"/><use transform="matrix(0.05,0,0,0.05,31.950000000000003,0)" xlink:href="#ax"/><use transform="matrix(0.05,0,0,0.05,36.95,0)" xlink:href="#ay"/><use transform="matrix(0.05,0,0,0.05,40.900000000000006,0)" xlink:href="#az"/><use transform="matrix(0.05,0,0,0.05,50.900000000000006,0)" xlink:href="#aA"/><use transform="matrix(0.05,0,0,0.05,60.900000000000006,0)" xlink:href="#ax"/><use transform="matrix(0.05,0,0,0.05,65.9,0)" xlink:href="#ay"/><use transform="matrix(0.05,0,0,0.05,69.85000000000001,0)" xlink:href="#aB"/><use transform="matrix(0.05,0,0,0.05,79.85000000000001,0)" xlink:href="#az"/></g><path d="M190 0L58-211 59 0H30v-248h39L202-35l-2-213h31V0h-41" id="aC"/><path d="M141 0L90-78 38 0H4l68-98-65-92h35l48 74 47-74h35l-64 92 68 98h-35" id="aD"/><g id="n"><use transform="matrix(0.05,0,0,0.05,0,0)" xlink:href="#aC"/><use transform="matrix(0.05,0,0,0.05,12.950000000000001,0)" xlink:href="#av"/><use transform="matrix(0.05,0,0,0.05,22.950000000000003,0)" xlink:href="#aD"/><use transform="matrix(0.05,0,0,0.05,31.950000000000003,0)" xlink:href="#ax"/></g><path d="M197 0v-115H63V0H30v-248h33v105h134v-105h34V0h-34" id="aE"/><path d="M115-194c55 1 70 41 70 98S169 2 115 4C84 4 66-9 55-30l1 105H24l-1-265h31l2 30c10-21 28-34 59-34zm-8 174c40 0 45-34 45-75s-6-73-45-74c-42 0-51 32-51 76 0 43 10 73 51 73" id="aF"/><g id="o"><use transform="matrix(0.05,0,0,0.05,0,0)" xlink:href="#aE"/><use transform="matrix(0.05,0,0,0.05,12.950000000000001,0)" xlink:href="#aB"/><use transform="matrix(0.05,0,0,0.05,22.950000000000003,0)" xlink:href="#aF"/></g><path d="M101-251c68 0 85 55 85 127S166 4 100 4C33 4 14-52 14-124c0-73 17-127 87-127zm-1 229c47 0 54-49 54-102s-4-102-53-102c-51 0-55 48-55 102 0 53 5 102 54 102" id="aG"/><path d="M33 0v-38h34V0H33" id="aH"/><path d="M0 4l72-265h28L28 4H0" id="aI"/><g id="p"><use transform="matrix(0.05,0,0,0.05,0,0)" xlink:href="#aG"/><use transform="matrix(0.05,0,0,0.05,10,0)" xlink:href="#aH"/><use transform="matrix(0.05,0,0,0.05,15,0)" xlink:href="#aG"/><use transform="matrix(0.05,0,0,0.05,25,0)" xlink:href="#aH"/><use transform="matrix(0.05,0,0,0.05,30,0)" xlink:href="#aG"/><use transform="matrix(0.05,0,0,0.05,40,0)" xlink:href="#aH"/><use transform="matrix(0.05,0,0,0.05,45,0)" xlink:href="#aG"/><use transform="matrix(0.05,0,0,0.05,55,0)" xlink:href="#aI"/><use transform="matrix(0.05,0,0,0.05,60,0)" xlink:href="#aG"/></g><path d="M33 0v-248h34V0H33" id="aJ"/><path d="M143 4C61 4 22-44 18-125c-5-107 100-154 193-111 17 8 29 25 37 43l-32 9c-13-25-37-40-76-40-61 0-88 39-88 99 0 61 29 100 91 101 35 0 62-11 79-27v-45h-74v-28h105v86C228-13 192 4 143 4" id="aK"/><path d="M266 0h-40l-56-210L115 0H75L2-248h35L96-30l15-64 43-154h32l59 218 59-218h35" id="aL"/><g id="q"><use transform="matrix(0.05,0,0,0.05,0,0)" xlink:href="#aJ"/><use transform="matrix(0.05,0,0,0.05,5,0)" xlink:href="#aK"/><use transform="matrix(0.05,0,0,0.05,19,0)" xlink:href="#aL"/></g><path fill="#333" d="M33 0v-248h34V0H33" id="aM"/><path fill="#333" d="M117-194c89-4 53 116 60 194h-32v-121c0-31-8-49-39-48C34-167 62-67 57 0H25l-1-190h30c1 10-1 24 2 32 11-22 29-35 61-36" id="aN"/><path fill="#333" d="M59-47c-2 24 18 29 38 22v24C64 9 27 4 27-40v-127H5v-23h24l9-43h21v43h35v23H59v120" id="aO"/><path fill="#333" d="M100-194c63 0 86 42 84 106H49c0 40 14 67 53 68 26 1 43-12 49-29l28 8c-11 28-37 45-77 45C44 4 14-33 15-96c1-61 26-98 85-98zm52 81c6-60-76-77-97-28-3 7-6 17-6 28h103" id="aP"/><path fill="#333" d="M114-163C36-179 61-72 57 0H25l-1-190h30c1 12-1 29 2 39 6-27 23-49 58-41v29" id="aQ"/><g id="r"><use transform="matrix(0.06172839506172839,0,0,0.06172839506172839,0,0)" xlink:href="#aM"/><use transform="matrix(0.06172839506172839,0,0,0.06172839506172839,6.172839506172839,0)" xlink:href="#aN"/><use transform="matrix(0.06172839506172839,0,0,0.06172839506172839,18.51851851851852,0)" xlink:href="#aO"/><use transform="matrix(0.06172839506172839,0,0,0.06172839506172839,24.691358024691358,0)" xlink:href="#aP"/><use transform="matrix(0.06172839506172839,0,0,0.06172839506172839,37.03703703703704,0)" xlink:href="#aQ"/><use transform="matrix(0.06172839506172839,0,0,0.06172839506172839,44.382716049382715,0)" xlink:href="#aN"/><use transform="matrix(0.06172839506172839,0,0,0.06172839506172839,56.72839506172839,0)" xlink:href="#aP"/><use transform="matrix(0.06172839506172839,0,0,0.06172839506172839,69.07407407407408,0)" xlink:href="#aO"/></g><path fill="#333" d="M177-190C167-65 218 103 67 71c-23-6-38-20-44-43l32-5c15 47 100 32 89-28v-30C133-14 115 1 83 1 29 1 15-40 15-95c0-56 16-97 71-98 29-1 48 16 59 35 1-10 0-23 2-32h30zM94-22c36 0 50-32 50-73 0-42-14-75-50-75-39 0-46 34-46 75s6 73 46 73" id="aR"/><path fill="#333" d="M141-36C126-15 110 5 73 4 37 3 15-17 15-53c-1-64 63-63 125-63 3-35-9-54-41-54-24 1-41 7-42 31l-33-3c5-37 33-52 76-52 45 0 72 20 72 64v82c-1 20 7 32 28 27v20c-31 9-61-2-59-35zM48-53c0 20 12 33 32 33 41-3 63-29 60-74-43 2-92-5-92 41" id="aS"/><path fill="#333" d="M206 0h-36l-40-164L89 0H53L-1-190h32L70-26l43-164h34l41 164 42-164h31" id="aT"/><path fill="#333" d="M179-190L93 31C79 59 56 82 12 73V49c39 6 53-20 64-50L1-190h34L92-34l54-156h33" id="aU"/><g id="s"><use transform="matrix(0.06172839506172839,0,0,0.06172839506172839,0,0)" xlink:href="#aR"/><use transform="matrix(0.06172839506172839,0,0,0.06172839506172839,12.345679012345679,0)" xlink:href="#aS"/><use transform="matrix(0.06172839506172839,0,0,0.06172839506172839,24.691358024691358,0)" xlink:href="#aO"/><use transform="matrix(0.06172839506172839,0,0,0.06172839506172839,30.864197530864196,0)" xlink:href="#aP"/><use transform="matrix(0.06172839506172839,0,0,0.06172839506172839,43.20987654320987,0)" xlink:href="#aT"/><use transform="matrix(0.06172839506172839,0,0,0.06172839506172839,59.197530864197525,0)" xlink:href="#aS"/><use transform="matrix(0.06172839506172839,0,0,0.06172839506172839,71.5432098765432,0)" xlink:href="#aU"/></g><path fill="#248814" d="M115-194c55 1 70 41 70 98S169 2 115 4C84 4 66-9 55-30l1 105H24l-1-265h31l2 30c10-21 28-34 59-34zm-8 174c40 0 45-34 45-75s-6-73-45-74c-42 0-51 32-51 76 0 43 10 73 51 73" id="aV"/><path fill="#248814" d="M115-194c53 0 69 39 70 98 0 66-23 100-70 100C84 3 66-7 56-30L54 0H23l1-261h32v101c10-23 28-34 59-34zm-8 174c40 0 45-34 45-75 0-40-5-75-45-74-42 0-51 32-51 76 0 43 10 73 51 73" id="aW"/><path fill="#248814" d="M24 0v-261h32V0H24" id="aX"/><g id="t"><use transform="matrix(0.05,0,0,0.05,0,0)" xlink:href="#aV"/><use transform="matrix(0.05,0,0,0.05,10,0)" xlink:href="#J"/><use transform="matrix(0.05,0,0,0.05,20,0)" xlink:href="#aW"/><use transform="matrix(0.05,0,0,0.05,30,0)" xlink:href="#aX"/><use transform="matrix(0.05,0,0,0.05,33.95,0)" xlink:href="#L"/><use transform="matrix(0.05,0,0,0.05,37.900000000000006,0)" xlink:href="#I"/><use transform="matrix(0.05,0,0,0.05,46.900000000000006,0)" xlink:href="#ai"/></g><g id="u"><use transform="matrix(0.05,0,0,0.05,0,0)" xlink:href="#ai"/><use transform="matrix(0.05,0,0,0.05,10,0)" xlink:href="#ak"/><use transform="matrix(0.05,0,0,0.05,20,0)" xlink:href="#al"/><use transform="matrix(0.05,0,0,0.05,25,0)" xlink:href="#ai"/><use transform="matrix(0.05,0,0,0.05,35,0)" xlink:href="#ak"/><use transform="matrix(0.05,0,0,0.05,45,0)" xlink:href="#ak"/><use transform="matrix(0.05,0,0,0.05,55,0)" xlink:href="#al"/><use transform="matrix(0.05,0,0,0.05,60,0)" xlink:href="#ai"/><use transform="matrix(0.05,0,0,0.05,70,0)" xlink:href="#al"/><use transform="matrix(0.05,0,0,0.05,75,0)" xlink:href="#ak"/><use transform="matrix(0.05,0,0,0.05,85,0)" xlink:href="#am"/><use transform="matrix(0.05,0,0,0.05,90,0)" xlink:href="#an"/><use transform="matrix(0.05,0,0,0.05,100,0)" xlink:href="#ao"/></g><path fill="#147eba" d="M133-34C117-15 103 5 69 4 32 3 11-16 11-54c-1-60 55-63 116-61 1-26-3-47-28-47-18 1-26 9-28 27l-52-2c7-38 36-58 82-57s74 22 75 68l1 82c-1 14 12 18 25 15v27c-30 8-71 5-69-32zm-48 3c29 0 43-24 42-57-32 0-66-3-65 30 0 17 8 27 23 27" id="aY"/><path fill="#147eba" d="M12 0v-35l95-120H19v-35h142v35L67-36h103V0H12" id="aZ"/><path fill="#147eba" d="M23 0v-37h61v-169l-59 37v-38l62-41h46v211h57V0H23" id="ba"/><g id="v"><use transform="matrix(0.0685185185185185,0,0,0.0685185185185185,0,0)" xlink:href="#aY"/><use transform="matrix(0.0685185185185185,0,0,0.0685185185185185,13.7037037037037,0)" xlink:href="#aZ"/><use transform="matrix(0.0685185185185185,0,0,0.0685185185185185,26.03703703703703,0)" xlink:href="#ba"/></g><g id="w"><use transform="matrix(0.05,0,0,0.05,0,0)" xlink:href="#ag"/><use transform="matrix(0.05,0,0,0.05,14.950000000000001,0)" xlink:href="#ah"/><use transform="matrix(0.05,0,0,0.05,24.950000000000003,0)" xlink:href="#ag"/><use transform="matrix(0.05,0,0,0.05,39.900000000000006,0)" xlink:href="#M"/><use transform="matrix(0.05,0,0,0.05,44.900000000000006,0)" xlink:href="#an"/></g><path fill="#248814" d="M126-127c33 6 58 20 58 59 0 88-139 92-164 29-3-8-5-16-6-25l32-3c6 27 21 44 54 44 32 0 52-15 52-46 0-38-36-46-79-43v-28c39 1 72-4 72-42 0-27-17-43-46-43-28 0-47 15-49 41l-32-3c6-42 35-63 81-64 48-1 79 21 79 65 0 36-21 52-52 59" id="bb"/><g id="x"><use transform="matrix(0.05,0,0,0.05,0,0)" xlink:href="#ai"/><use transform="matrix(0.05,0,0,0.05,10,0)" xlink:href="#ak"/><use transform="matrix(0.05,0,0,0.05,20,0)" xlink:href="#al"/><use transform="matrix(0.05,0,0,0.05,25,0)" xlink:href="#ai"/><use transform="matrix(0.05,0,0,0.05,35,0)" xlink:href="#ak"/><use transform="matrix(0.05,0,0,0.05,45,0)" xlink:href="#ak"/><use transform="matrix(0.05,0,0,0.05,55,0)" xlink:href="#al"/><use transform="matrix(0.05,0,0,0.05,60,0)" xlink:href="#bb"/><use transform="matrix(0.05,0,0,0.05,70,0)" xlink:href="#al"/><use transform="matrix(0.05,0,0,0.05,75,0)" xlink:href="#ak"/><use transform="matrix(0.05,0,0,0.05,85,0)" xlink:href="#am"/><use transform="matrix(0.05,0,0,0.05,90,0)" xlink:href="#an"/><use transform="matrix(0.05,0,0,0.05,100,0)" xlink:href="#ao"/></g><g id="y"><use transform="matrix(0.05,0,0,0.05,0,0)" xlink:href="#aV"/><use transform="matrix(0.05,0,0,0.05,10,0)" xlink:href="#J"/><use transform="matrix(0.05,0,0,0.05,20,0)" xlink:href="#aW"/><use transform="matrix(0.05,0,0,0.05,30,0)" xlink:href="#aX"/><use transform="matrix(0.05,0,0,0.05,33.95,0)" xlink:href="#L"/><use transform="matrix(0.05,0,0,0.05,37.900000000000006,0)" xlink:href="#I"/><use transform="matrix(0.05,0,0,0.05,46.900000000000006,0)" xlink:href="#an"/></g><g id="z"><use transform="matrix(0.05,0,0,0.05,0,0)" xlink:href="#ai"/><use transform="matrix(0.05,0,0,0.05,10,0)" xlink:href="#ak"/><use transform="matrix(0.05,0,0,0.05,20,0)" xlink:href="#al"/><use transform="matrix(0.05,0,0,0.05,25,0)" xlink:href="#ai"/><use transform="matrix(0.05,0,0,0.05,35,0)" xlink:href="#ak"/><use transform="matrix(0.05,0,0,0.05,45,0)" xlink:href="#ak"/><use transform="matrix(0.05,0,0,0.05,55,0)" xlink:href="#al"/><use transform="matrix(0.05,0,0,0.05,60,0)" xlink:href="#ao"/><use transform="matrix(0.05,0,0,0.05,70,0)" xlink:href="#al"/><use transform="matrix(0.05,0,0,0.05,75,0)" xlink:href="#ak"/><use transform="matrix(0.05,0,0,0.05,85,0)" xlink:href="#am"/><use transform="matrix(0.05,0,0,0.05,90,0)" xlink:href="#an"/><use transform="matrix(0.05,0,0,0.05,100,0)" xlink:href="#ao"/></g><path fill="#147eba" d="M182-182c0 78-84 86-111 141h115V0H12c-6-101 99-100 120-180 1-22-12-31-33-32-23 0-32 14-35 34l-49-3c5-45 32-70 84-70 51 0 83 22 83 69" id="bc"/><g id="A"><use transform="matrix(0.0685185185185185,0,0,0.0685185185185185,0,0)" xlink:href="#aY"/><use transform="matrix(0.0685185185185185,0,0,0.0685185185185185,13.7037037037037,0)" xlink:href="#aZ"/><use transform="matrix(0.0685185185185185,0,0,0.0685185185185185,26.03703703703703,0)" xlink:href="#bc"/></g><path fill="#032f62" d="M138-1120c207-4 339-93 415-229h266v1140h323V0H149v-209h389v-891c-70 121-216 187-400 194v-214" id="bd"/><path fill="#032f62" d="M127-675c0-405 101-695 492-695 382 0 482 297 482 695 0 324-79 561-295 658-59 27-124 37-195 37-378 0-484-300-484-695zm580 451c143-96 121-451 101-680-12-138-46-246-191-246-149 0-184 107-199 248-19 180-21 469 36 598 29 67 72 101 159 103 37 0 69-6 94-23" id="be"/><path fill="#032f62" d="M470 0v-305h289V0H470" id="bf"/><path fill="#032f62" d="M89 20l821-1504h228L321 20H89" id="bg"/><path fill="#032f62" d="M706-877c265 0 409 163 409 431 0 299-171 466-474 466-381 0-516-302-516-692 0-236 47-410 135-526 112-147 319-207 541-154 154 36 236 149 276 306l-265 37c-22-86-75-139-170-139-76 0-135 36-178 108s-64 179-64 318c54-94 164-155 306-155zm-74 678c138 0 201-98 201-239s-67-232-208-232c-125 0-205 73-205 202 0 149 67 269 212 269" id="bh"/><g id="B"><use transform="matrix(0.015407986111111103,0,0,0.015407986111111103,0,0)" xlink:href="#bd"/><use transform="matrix(0.015407986111111103,0,0,0.015407986111111103,18.936414930555546,0)" xlink:href="#be"/><use transform="matrix(0.015407986111111103,0,0,0.015407986111111103,37.87282986111109,0)" xlink:href="#bf"/><use transform="matrix(0.015407986111111103,0,0,0.015407986111111103,56.80924479166664,0)" xlink:href="#bd"/><use transform="matrix(0.015407986111111103,0,0,0.015407986111111103,75.74565972222219,0)" xlink:href="#be"/><use transform="matrix(0.015407986111111103,0,0,0.015407986111111103,94.68207465277773,0)" xlink:href="#be"/><use transform="matrix(0.015407986111111103,0,0,0.015407986111111103,113.61848958333327,0)" xlink:href="#bf"/><use transform="matrix(0.015407986111111103,0,0,0.015407986111111103,132.55490451388883,0)" xlink:href="#be"/><use transform="matrix(0.015407986111111103,0,0,0.015407986111111103,151.49131944444437,0)" xlink:href="#bf"/><use transform="matrix(0.015407986111111103,0,0,0.015407986111111103,170.42773437499991,0)" xlink:href="#be"/><use transform="matrix(0.015407986111111103,0,0,0.015407986111111103,189.36414930555546,0)" xlink:href="#bg"/><use transform="matrix(0.015407986111111103,0,0,0.015407986111111103,208.300564236111,0)" xlink:href="#bd"/><use transform="matrix(0.015407986111111103,0,0,0.015407986111111103,227.23697916666654,0)" xlink:href="#bh"/></g><path fill="#333" d="M30-248c87 1 191-15 191 75 0 78-77 80-158 76V0H30v-248zm33 125c57 0 124 11 124-50 0-59-68-47-124-48v98" id="bi"/><path fill="#333" d="M24-231v-30h32v30H24zM24 0v-190h32V0H24" id="bj"/><path fill="#333" d="M108 0H70L1-190h34L89-25l56-165h34" id="bk"/><g id="C"><use transform="matrix(0.043209876543209784,0,0,0.043209876543209784,0,0)" xlink:href="#bi"/><use transform="matrix(0.043209876543209784,0,0,0.043209876543209784,10.370370370370349,0)" xlink:href="#aQ"/><use transform="matrix(0.043209876543209784,0,0,0.043209876543209784,15.512345679012313,0)" xlink:href="#bj"/><use transform="matrix(0.043209876543209784,0,0,0.043209876543209784,18.925925925925885,0)" xlink:href="#bk"/><use transform="matrix(0.043209876543209784,0,0,0.043209876543209784,26.703703703703646,0)" xlink:href="#aS"/><use transform="matrix(0.043209876543209784,0,0,0.043209876543209784,35.3456790123456,0)" xlink:href="#aO"/><use transform="matrix(0.043209876543209784,0,0,0.043209876543209784,39.66666666666658,0)" xlink:href="#aP"/></g><path fill="#333" d="M209 0H11v-25l151-195H24v-28h176v25L50-27h159V0" id="bl"/><path fill="#333" d="M100-194c62-1 85 37 85 99 1 63-27 99-86 99S16-35 15-95c0-66 28-99 85-99zM99-20c44 1 53-31 53-75 0-43-8-75-51-75s-53 32-53 75 10 74 51 75" id="bm"/><g id="D"><use transform="matrix(0.043209876543209784,0,0,0.043209876543209784,0,0)" xlink:href="#bl"/><use transform="matrix(0.043209876543209784,0,0,0.043209876543209784,9.462962962962942,0)" xlink:href="#bm"/><use transform="matrix(0.043209876543209784,0,0,0.043209876543209784,18.1049382716049,0)" xlink:href="#aN"/><use transform="matrix(0.043209876543209784,0,0,0.043209876543209784,26.746913580246858,0)" xlink:href="#aP"/></g><path fill="#333" d="M23 0v-37h61v-169l-59 37v-38l62-41h46v211h57V0H23" id="bn"/><g id="E"><use transform="matrix(0.04938271604938272,0,0,0.04938271604938272,0,0)" xlink:href="#ap"/><use transform="matrix(0.04938271604938272,0,0,0.04938271604938272,9.876543209876544,0)" xlink:href="#aq"/><use transform="matrix(0.04938271604938272,0,0,0.04938271604938272,15.753086419753087,0)" xlink:href="#ar"/><use transform="matrix(0.04938271604938272,0,0,0.04938271604938272,26.567901234567902,0)" xlink:href="#bn"/></g><path fill="#333" d="M84 4C-5 8 30-112 23-190h32v120c0 31 7 50 39 49 72-2 45-101 50-169h31l1 190h-30c-1-10 1-25-2-33-11 22-28 36-60 37" id="bo"/><path fill="#333" d="M115-194c53 0 69 39 70 98 0 66-23 100-70 100C84 3 66-7 56-30L54 0H23l1-261h32v101c10-23 28-34 59-34zm-8 174c40 0 45-34 45-75 0-40-5-75-45-74-42 0-51 32-51 76 0 43 10 73 51 73" id="bp"/><path fill="#333" d="M24 0v-261h32V0H24" id="bq"/><path fill="#333" d="M96-169c-40 0-48 33-48 73s9 75 48 75c24 0 41-14 43-38l32 2c-6 37-31 61-74 61-59 0-76-41-82-99-10-93 101-131 147-64 4 7 5 14 7 22l-32 3c-4-21-16-35-41-35" id="br"/><g id="F"><use transform="matrix(0.043209876543209784,0,0,0.043209876543209784,0,0)" xlink:href="#bi"/><use transform="matrix(0.043209876543209784,0,0,0.043209876543209784,10.370370370370349,0)" xlink:href="#bo"/><use transform="matrix(0.043209876543209784,0,0,0.043209876543209784,19.012345679012306,0)" xlink:href="#bp"/><use transform="matrix(0.043209876543209784,0,0,0.043209876543209784,27.654320987654263,0)" xlink:href="#bq"/><use transform="matrix(0.043209876543209784,0,0,0.043209876543209784,31.067901234567834,0)" xlink:href="#bj"/><use transform="matrix(0.043209876543209784,0,0,0.043209876543209784,34.48148148148141,0)" xlink:href="#br"/></g></defs></g></svg>